<svg version="1.1" id="Layer_1" xmlns="http://www.w3.org/2000/svg" xmlns:xlink="http://www.w3.org/1999/xlink" x="0px" y="0px"
	 width="100%" viewBox="0 0 1450 1720" enable-background="new 0 0 1450 1720" xml:space="preserve">
<path fill="#000000" opacity="1.000000" stroke="none" 
	d="
M1.000000,1195.000000 
	C1.000000,1179.643311 1.000000,1164.286621 1.357937,1148.376221 
	C4.634024,1151.273926 7.009019,1155.485962 10.573759,1158.032104 
	C20.620365,1165.207886 32.735542,1166.398438 44.479851,1166.759644 
	C57.333633,1167.154907 70.406136,1166.725464 83.093239,1164.771729 
	C101.879402,1161.878784 120.724808,1158.432007 138.980453,1153.237183 
	C171.989273,1143.844116 202.691223,1129.190796 230.788391,1109.158569 
	C253.000870,1093.321899 272.638977,1074.936646 289.836731,1053.781738 
	C307.680511,1031.832153 321.669556,1007.607666 332.579956,981.653320 
	C350.049805,940.094971 357.239990,896.391357 357.882538,851.537109 
	C358.021637,841.826782 357.068970,832.047058 355.904144,822.385498 
	C354.470184,810.491333 352.895660,798.552795 350.309387,786.870911 
	C343.639862,756.745789 332.051392,728.504028 316.459442,701.859558 
	C303.479980,679.679443 287.950684,659.439819 270.243927,640.909973 
	C262.937225,633.263611 254.822311,626.363647 246.836746,619.397339 
	C230.631653,605.260620 212.874893,593.295471 194.003265,583.046875 
	C169.268768,569.614502 143.254669,559.498047 115.720551,553.312073 
	C96.683502,549.035217 77.437599,546.506287 57.974174,546.107971 
	C45.876900,545.860352 33.759789,546.776001 21.648386,546.968384 
	C10.139582,547.151245 5.342514,550.472839 2.085141,560.508911 
	C2.007505,373.699860 2.003752,187.349930 2.000000,1.000000 
	C169.689987,1.000000 337.379974,1.000000 505.637085,1.379261 
	C503.680450,3.172059 501.300720,5.218845 498.595428,5.834085 
	C495.425568,6.554973 491.910858,5.621578 488.652252,6.112641 
	C469.817566,8.950956 450.984558,11.822623 432.207214,15.013999 
	C401.563995,20.222084 371.468414,27.823095 341.798737,37.003407 
	C293.970520,51.802288 247.612976,70.273521 203.834732,94.717720 
	C183.851578,105.875595 164.106873,117.523224 144.792542,129.796219 
	C129.528885,139.495300 114.845139,150.164886 100.360031,161.012604 
	C89.159767,169.400345 78.280266,178.315964 68.031433,187.829880 
	C63.365143,192.161591 60.566422,198.505127 56.682625,204.071045 
	C56.418900,204.610931 56.393147,205.015915 56.367393,205.420898 
	C56.732948,205.064255 57.098503,204.707611 57.797527,204.267136 
	C60.778210,202.264313 63.502251,200.442047 66.060020,198.410446 
	C81.155327,186.420502 95.682312,173.633530 111.391960,162.515625 
	C143.987762,139.447235 178.115097,118.666969 214.037613,101.222069 
	C239.807327,88.707626 266.117554,77.093170 292.879730,66.896248 
	C318.806091,57.017807 345.333160,48.408516 372.119080,41.178249 
	C400.135834,33.615749 428.705170,28.014009 457.172363,22.242987 
	C471.323700,19.374151 485.758423,17.803616 500.118439,16.095306 
	C511.736420,14.713200 523.438782,14.051725 535.095032,12.975513 
	C540.773804,12.451197 546.432495,11.709743 552.560913,11.040583 
	C580.337097,11.036438 607.652649,11.058293 635.235718,11.395369 
	C642.552490,12.471565 649.598022,13.269199 656.651733,13.985703 
	C670.269287,15.368952 683.960999,16.225136 697.495483,18.176655 
	C717.347046,21.039028 737.115051,24.515947 756.869080,28.011278 
	C788.516418,33.611061 819.604553,41.637089 850.236633,51.236961 
	C896.166382,65.630966 940.806335,83.368065 983.247192,106.196701 
	C1003.890381,117.300522 1024.416504,128.744644 1044.212769,141.271881 
	C1074.483154,160.427216 1103.637085,181.266006 1130.513916,205.061996 
	C1148.247925,220.763092 1165.987427,236.484634 1183.110840,252.839493 
	C1194.860474,264.061859 1205.752686,276.209900 1216.668945,288.269287 
	C1228.320801,301.141327 1240.236206,313.867493 1250.810425,327.601501 
	C1268.601685,350.709351 1286.414673,373.914581 1302.371704,398.287964 
	C1317.993896,422.149963 1331.747925,447.281769 1345.467163,472.324463 
	C1353.235596,486.504608 1359.740967,501.435059 1366.005371,516.367371 
	C1376.020630,540.241455 1385.437744,564.368408 1394.951782,588.450134 
	C1398.812866,598.223389 1402.264404,608.158447 1405.938477,618.451904 
	C1406.051025,620.374695 1405.913574,621.913330 1406.235352,623.349243 
	C1412.372070,650.747314 1418.785645,678.085815 1424.642578,705.543091 
	C1427.313721,718.065002 1429.227539,730.774414 1430.902344,743.475586 
	C1432.646118,756.700928 1433.903198,770.001343 1434.984497,783.300476 
	C1436.510254,802.065430 1438.573853,820.849670 1438.775635,839.643250 
	C1439.034058,863.689270 1437.782349,887.756592 1436.952759,911.806824 
	C1436.582520,922.540771 1436.105469,933.307678 1434.874146,943.966919 
	C1432.950317,960.621155 1430.883179,977.294128 1427.899536,993.782349 
	C1423.515381,1018.011536 1419.272949,1042.343994 1413.126465,1066.156372 
	C1406.148071,1093.192139 1397.550903,1119.837769 1388.901489,1146.406860 
	C1379.093384,1176.535400 1366.409668,1205.574707 1352.358032,1233.932495 
	C1342.176392,1254.479858 1331.556519,1274.915039 1319.552734,1294.428711 
	C1303.861816,1319.936279 1287.713135,1345.312988 1269.733765,1369.221191 
	C1250.518921,1394.772095 1229.915283,1419.453125 1208.120117,1442.838501 
	C1187.433228,1465.034668 1165.046021,1485.774902 1142.233032,1505.819946 
	C1124.079956,1521.770386 1104.362183,1535.981079 1084.974609,1550.476440 
	C1053.217529,1574.220459 1019.286682,1594.570190 984.159058,1612.868408 
	C955.607361,1627.741089 926.336243,1641.065186 896.193115,1652.505859 
	C867.082458,1663.554565 837.549805,1673.166992 807.438721,1681.047119 
	C775.773621,1689.333984 743.820007,1696.190796 711.288086,1700.044189 
	C692.976379,1702.213257 674.629517,1704.095459 656.283875,1705.963501 
	C650.364746,1706.566040 644.403137,1706.900757 638.453796,1707.031128 
	C619.619080,1707.444092 600.771118,1708.230713 581.946777,1707.879639 
	C561.099976,1707.490845 540.263855,1706.172729 519.442383,1704.933472 
	C508.254211,1704.267700 497.082520,1703.125488 485.947418,1701.822266 
	C474.195679,1700.446533 462.478607,1698.739868 450.779022,1696.963013 
	C438.929169,1695.163330 426.977570,1693.711060 415.326141,1691.005737 
	C399.169495,1687.254395 383.059235,1683.073853 367.273529,1678.004517 
	C339.090057,1668.953613 310.962067,1659.647339 283.202179,1649.388916 
	C264.988464,1642.658325 247.391724,1634.224609 229.645004,1626.271729 
	C204.757584,1615.119019 180.223221,1603.105835 157.611038,1587.843750 
	C134.421875,1572.191895 112.098076,1555.258545 89.383545,1538.902710 
	C80.031166,1532.168579 70.113037,1526.100220 61.405354,1518.619629 
	C48.955547,1507.924561 37.394291,1496.196655 25.426489,1484.938477 
	C19.507324,1479.370361 13.527688,1473.866455 7.389637,1468.160889 
	C5.613412,1469.891357 3.860095,1471.599487 1.933502,1473.476440 
	C12.820933,1484.349854 23.387400,1494.984375 34.061386,1505.509888 
	C37.000740,1508.408203 40.187832,1511.070679 43.387657,1513.686768 
	C53.595200,1522.032349 63.780655,1530.408203 74.125610,1538.581421 
	C88.857872,1550.220703 103.336823,1562.237915 118.647072,1573.071777 
	C132.612213,1582.953613 147.600845,1591.379883 162.031845,1600.614136 
	C195.192459,1621.833008 229.889130,1640.093506 266.077667,1655.605469 
	C304.911224,1672.251343 344.883179,1685.162476 386.170746,1694.206909 
	C420.690979,1701.768799 455.223877,1709.193237 490.397949,1712.979980 
	C512.030518,1715.309082 533.732788,1716.987427 555.392822,1719.071289 
	C556.645447,1719.191895 557.799866,1720.333618 559.000000,1721.000000 
	C373.074371,1721.000000 187.148712,1721.000000 1.000000,1721.000000 
	C1.000000,1548.643433 1.000000,1376.286621 1.380373,1203.396973 
	C4.448287,1209.977661 8.232006,1216.369019 15.856298,1218.872559 
	C27.537146,1222.708374 39.199081,1226.979492 51.207813,1229.348633 
	C68.275002,1232.715698 85.585892,1235.884155 102.906998,1236.694946 
	C132.015701,1238.057861 161.276749,1237.831421 190.028046,1231.922607 
	C211.080414,1227.595825 232.212952,1223.287354 252.832367,1217.320801 
	C278.217010,1209.975342 302.194702,1198.919678 325.070312,1185.523804 
	C345.484192,1173.569702 364.834106,1160.071533 382.136383,1144.038940 
	C395.260284,1131.878052 407.351166,1118.529053 419.225586,1105.110352 
	C436.009338,1086.143677 449.366089,1064.741211 461.212708,1042.414551 
	C473.145508,1019.925476 482.649780,996.424500 489.912628,972.019043 
	C498.952026,941.643982 504.733459,910.635315 506.848206,879.042480 
	C507.740479,865.712524 507.515228,852.248291 506.867432,838.890259 
	C506.125214,823.585876 505.401703,808.146973 502.760803,793.101624 
	C499.333008,773.573364 494.904663,754.115723 489.306610,735.098816 
	C481.646301,709.076172 470.029785,684.619690 456.111420,661.282532 
	C443.057953,639.395691 428.116943,618.844421 410.603546,600.414307 
	C398.643524,587.828308 385.453369,576.356262 372.325073,564.947937 
	C351.946167,547.238953 329.176300,532.889771 305.140594,520.800964 
	C287.337677,511.846924 269.058258,503.673981 250.479370,496.473572 
	C230.080902,488.567932 208.810486,483.244476 187.111267,480.029541 
	C177.996979,478.679199 168.826080,477.600830 159.644165,476.846130 
	C149.103027,475.979736 138.521362,475.165863 127.956848,475.160004 
	C119.067322,475.155060 110.149185,476.087280 101.294296,477.063446 
	C90.184120,478.288269 78.987732,479.327637 68.077682,481.628418 
	C52.504307,484.912659 37.029747,488.831757 21.746031,493.280334 
	C3.474247,498.598724 -1.115256,507.866974 5.574065,525.464478 
	C9.852669,524.247009 14.133274,523.055298 18.398539,521.810974 
	C40.151070,515.465027 62.454586,512.180176 84.995834,511.140503 
	C105.678436,510.186554 126.411118,510.961456 146.802933,515.043579 
	C163.696701,518.425354 180.740845,521.494873 197.229660,526.359375 
	C222.883209,533.927612 247.260101,544.788940 270.550079,558.123962 
	C297.059357,573.302307 321.178650,591.581543 343.099396,612.747131 
	C350.711121,620.096680 357.540649,628.264160 364.626587,636.148743 
	C379.922058,653.168091 392.251892,672.250732 403.055511,692.328857 
	C412.606689,710.079407 420.039490,728.714355 426.164612,747.942810 
	C434.044983,772.681641 438.756104,798.024841 440.804504,823.791138 
	C441.888580,837.428040 441.383423,851.235535 440.884857,864.940125 
	C440.471832,876.293823 439.233948,887.633728 437.977112,898.937012 
	C435.588196,920.421509 430.358551,941.324951 423.509430,961.756897 
	C416.375763,983.037659 407.356781,1003.523560 396.487854,1023.251770 
	C383.505524,1046.815918 367.947052,1068.489136 349.382782,1087.790039 
	C337.948547,1099.677856 325.356598,1110.598389 312.424622,1120.870728 
	C281.149994,1145.713135 245.921951,1163.532715 208.520966,1177.233154 
	C177.868484,1188.461304 146.127884,1194.771851 113.665100,1196.763550 
	C98.134460,1197.716553 82.331413,1197.437744 66.882309,1195.684814 
	C48.327118,1193.579346 30.002224,1189.390381 11.610075,1185.931030 
	C5.253332,1184.735352 4.415025,1185.121948 2.990849,1191.427246 
	C2.702682,1192.702881 1.682619,1193.813354 1.000000,1195.000000 
M47.184109,210.984283 
	C34.634800,215.318985 24.893690,223.418594 17.092674,233.910553 
	C13.455841,238.801880 10.368733,244.101959 7.032453,249.216766 
	C7.376089,249.484116 7.719726,249.751465 8.063363,250.018814 
	C11.268966,247.285553 14.555882,244.641159 17.662279,241.799438 
	C23.151545,236.777878 28.635351,231.741867 33.925777,226.513901 
	C38.865871,221.632111 43.551739,216.493042 48.836823,211.265366 
	C49.011921,210.948593 49.187019,210.631821 49.362122,210.315048 
	C48.886562,210.517059 48.411003,210.719070 47.184109,210.984283 
M281.899048,139.003586 
	C300.103943,134.655884 318.257355,130.075653 336.529694,126.032822 
	C351.597198,122.699066 366.738892,119.586845 381.970734,117.143433 
	C396.098663,114.877098 410.367554,113.405579 424.614532,111.987595 
	C440.371429,110.419327 456.158173,108.502167 471.960358,108.194115 
	C494.223267,107.760117 516.521484,108.381531 538.786743,109.103912 
	C552.640381,109.553391 566.540894,110.406143 580.276672,112.186394 
	C598.512695,114.549927 616.659424,117.717766 634.753723,121.034973 
	C667.152405,126.974571 698.714050,136.016281 729.842529,146.798843 
	C765.760315,159.240356 800.694031,173.906143 834.022888,192.139709 
	C855.560547,203.922577 876.982483,216.054871 897.566284,229.402954 
	C916.603638,241.748169 935.052551,255.185196 952.674011,269.480743 
	C972.945190,285.925964 992.682800,303.161194 1011.424988,321.319946 
	C1028.541626,337.903809 1044.661499,355.637512 1060.037476,373.862671 
	C1075.209839,391.846344 1089.526855,410.640442 1103.049194,429.900452 
	C1114.958618,446.863129 1126.193237,464.451935 1136.037720,482.676117 
	C1150.699463,509.817657 1164.960815,537.282532 1177.413574,565.483521 
	C1193.445068,601.788757 1205.490479,639.633301 1214.587646,678.318481 
	C1218.383911,694.461304 1222.120117,710.659180 1224.823120,727.007385 
	C1227.853516,745.335388 1230.006592,763.828003 1231.941284,782.311890 
	C1233.710449,799.213989 1235.452759,816.183777 1235.807007,833.152954 
	C1236.264526,855.080994 1235.380249,877.039062 1234.960083,898.982056 
	C1234.862061,904.098755 1234.494385,909.227966 1233.922729,914.314575 
	C1232.379272,928.051208 1230.915161,941.804871 1228.944458,955.483337 
	C1226.437622,972.883728 1224.114746,990.352600 1220.527344,1007.544678 
	C1216.000732,1029.238037 1211.160522,1050.943970 1204.854858,1072.168945 
	C1196.428101,1100.533325 1187.673340,1128.918579 1176.812500,1156.407227 
	C1166.406860,1182.743774 1153.786499,1208.281250 1140.893555,1233.533813 
	C1131.545166,1251.843750 1120.692139,1269.457031 1109.527832,1286.746948 
	C1099.894043,1301.666626 1089.513550,1316.210815 1078.315796,1329.988525 
	C1062.173584,1349.849976 1045.455811,1369.294800 1028.093506,1388.095581 
	C1016.406616,1400.750610 1003.442566,1412.277222 990.571228,1423.772827 
	C978.266663,1434.762329 965.796021,1445.666504 952.581360,1455.511597 
	C934.637451,1468.879883 916.376160,1481.941406 897.409241,1493.786499 
	C874.769226,1507.925537 851.673706,1521.479858 827.970581,1533.730225 
	C805.129700,1545.535034 781.407593,1555.687256 757.809692,1565.961548 
	C730.001892,1578.068604 701.215942,1587.468628 671.835144,1595.002686 
	C637.039368,1603.925415 601.633179,1609.430420 565.934448,1612.840576 
	C547.172852,1614.632690 528.284851,1615.349121 509.434906,1615.894775 
	C492.283752,1616.391357 475.095734,1616.376831 457.945343,1615.867188 
	C446.597443,1615.530029 435.244781,1614.250122 423.971741,1612.792969 
	C411.923431,1611.235596 399.922424,1609.207275 387.979004,1606.967285 
	C368.131470,1603.244507 348.231293,1599.685669 328.567596,1595.132324 
	C309.206055,1590.648926 289.816559,1585.903076 270.974762,1579.657104 
	C248.338470,1572.153320 225.934814,1563.712646 204.051315,1554.242798 
	C184.331329,1545.709229 165.451828,1535.234009 146.192734,1525.633057 
	C145.007736,1525.042236 143.744324,1524.608643 142.517410,1524.101929 
	C146.126114,1528.704590 150.137939,1532.543701 154.595352,1535.766724 
	C169.203690,1546.330078 184.776108,1555.210571 201.579712,1561.864014 
	C225.155258,1571.198364 248.392029,1581.515625 272.359467,1589.696533 
	C295.501251,1597.595703 319.255157,1603.838257 342.990723,1609.813110 
	C358.726776,1613.774170 374.828033,1616.509521 390.905029,1618.828369 
	C407.198639,1621.178467 423.637115,1622.687866 440.059875,1623.938965 
	C461.982269,1625.609131 483.936737,1627.310913 505.903900,1627.793945 
	C522.772156,1628.164673 539.685852,1626.769409 556.570496,1625.972290 
	C566.803467,1625.489380 577.086243,1625.165649 587.228394,1623.855225 
	C604.498291,1621.623901 621.716125,1618.910889 638.881836,1615.968750 
	C668.244812,1610.936157 697.149048,1603.834351 725.323975,1594.189331 
	C746.806030,1586.835449 768.014648,1578.643188 789.155457,1570.341553 
	C818.410828,1558.853271 846.273926,1544.376221 873.420532,1528.660767 
	C901.947510,1512.146240 929.742249,1494.356079 955.193909,1473.296143 
	C976.312134,1455.821899 997.744568,1438.576294 1017.430237,1419.564575 
	C1036.699951,1400.954590 1054.417114,1380.652710 1071.907715,1360.312622 
	C1084.773804,1345.350342 1097.043701,1329.710815 1108.023315,1313.330078 
	C1123.514282,1290.218628 1138.557861,1266.688599 1151.958496,1242.328247 
	C1165.458008,1217.788208 1177.487183,1192.353394 1188.753052,1166.692627 
	C1202.059814,1136.383423 1212.757324,1105.000854 1220.971313,1072.909668 
	C1227.239502,1048.420044 1233.106812,1023.775757 1237.746216,998.937561 
	C1241.575928,978.434509 1243.863037,957.596924 1245.880493,936.815063 
	C1247.875366,916.264893 1249.263428,895.614685 1249.824707,874.978638 
	C1250.325684,856.556458 1249.497803,838.088928 1248.946289,819.650635 
	C1248.560303,806.751160 1248.188599,793.811157 1246.845459,780.990295 
	C1245.064575,763.990540 1242.787842,747.013428 1239.910278,730.165649 
	C1236.511108,710.263977 1233.232788,690.250977 1228.114014,670.755676 
	C1220.937988,643.425110 1213.201904,616.137512 1203.684082,589.555298 
	C1194.257812,563.228760 1183.412109,537.270325 1171.175659,512.130371 
	C1159.432007,488.002625 1146.053345,464.529449 1131.650146,441.876862 
	C1117.004883,418.843628 1100.757080,396.763428 1084.210693,375.027374 
	C1072.625366,359.808258 1059.986816,345.261810 1046.687988,331.508209 
	C1029.486328,313.718445 1011.712402,296.389038 993.149902,280.036316 
	C976.732483,265.573334 959.108765,252.440308 941.641052,239.217560 
	C910.304565,215.496445 877.067932,194.611938 842.323120,176.335953 
	C820.714233,164.969513 798.374329,154.911346 775.984375,145.131760 
	C747.441101,132.664429 717.851746,122.958824 687.711365,115.147758 
	C654.257935,106.478065 620.388123,99.835762 585.877930,96.997795 
	C568.107117,95.536423 550.333496,93.650589 532.528992,93.184952 
	C513.772400,92.694412 494.972565,93.503853 476.201538,94.072754 
	C466.965424,94.352669 457.717102,95.070107 448.535736,96.124664 
	C433.506256,97.850929 418.479340,99.712936 403.539642,102.075897 
	C387.970398,104.538437 372.395782,107.171783 357.023010,110.619911 
	C337.636261,114.968391 318.405182,120.043831 299.202026,125.162285 
	C291.323395,127.262268 283.692993,130.293488 275.135742,132.975983 
	C271.941315,133.725403 268.677979,134.259720 265.562958,135.257095 
	C229.465759,146.814606 195.191223,162.406250 162.811890,182.107330 
	C155.515884,186.546524 148.486786,191.424408 141.334824,196.100357 
	C142.898209,196.701401 143.979065,196.449707 144.961731,195.988678 
	C152.136444,192.622696 159.196213,188.993439 166.470856,185.862213 
	C186.737000,177.139038 207.010422,168.423004 227.432175,160.074051 
	C245.212112,152.805161 263.198120,146.040344 281.899048,139.003586 
M461.720215,200.232101 
	C469.148651,201.525116 476.607666,202.664734 484.000275,204.137543 
	C517.369019,210.785446 550.529602,218.338318 583.011414,228.545303 
	C624.802551,241.677628 665.205811,258.144440 703.677307,279.246613 
	C728.133789,292.661377 751.661560,307.459534 774.428223,323.599060 
	C803.342468,344.096680 830.216309,367.007141 855.712585,391.487549 
	C869.564880,404.787872 882.502808,419.126862 895.004822,433.723907 
	C908.719421,449.736603 921.722595,466.382233 934.561523,483.115967 
	C955.691650,510.656128 973.453064,540.376404 989.483704,571.101807 
	C1007.059143,604.787842 1021.781616,639.729492 1032.823608,676.106262 
	C1038.118042,693.548828 1043.132446,711.155884 1046.803101,728.991150 
	C1051.071411,749.731079 1054.213257,770.739929 1056.928223,791.750427 
	C1059.019287,807.932373 1060.523438,824.284180 1060.780273,840.584229 
	C1061.069702,858.960632 1059.988037,877.382629 1058.892944,895.748474 
	C1058.158813,908.062683 1056.911255,920.403137 1054.920654,932.572754 
	C1051.581177,952.988708 1048.610840,973.575745 1043.410156,993.550659 
	C1035.546021,1023.756042 1026.526367,1053.701660 1016.853149,1083.384644 
	C1004.811768,1120.334473 988.411011,1155.487305 969.753357,1189.565063 
	C954.137939,1218.085938 936.380615,1245.177368 916.683838,1271.094238 
	C900.825867,1291.960083 883.316101,1311.308838 865.172546,1330.086792 
	C855.184387,1340.424316 844.280090,1349.956177 833.197754,1359.137817 
	C817.209839,1372.383545 801.243652,1385.777832 784.267639,1397.681763 
	C752.904968,1419.674316 719.852722,1438.890747 685.041443,1455.101562 
	C652.421997,1470.291748 619.262024,1483.919189 584.596497,1493.690063 
	C557.354309,1501.368774 529.614990,1506.706787 501.662415,1511.004272 
	C491.107269,1512.626953 480.566498,1514.349854 469.995300,1515.860107 
	C459.570068,1517.349365 449.135803,1519.554321 438.667938,1519.792358 
	C420.572540,1520.203857 402.429535,1519.735229 384.341278,1518.890625 
	C367.368073,1518.098145 350.400360,1516.709229 333.503937,1514.895874 
	C319.128937,1513.353149 304.724121,1511.488647 290.575470,1508.583374 
	C271.604675,1504.687744 252.807999,1499.885376 234.043274,1495.057617 
	C195.616669,1485.171143 159.073410,1470.182495 123.127762,1453.601196 
	C92.286377,1439.374268 64.194221,1420.504517 35.743599,1402.227783 
	C31.051109,1399.213257 26.301876,1396.287109 20.853100,1392.864380 
	C21.290302,1394.270752 21.308580,1394.634155 21.490726,1394.871826 
	C31.167303,1407.503906 43.148186,1417.719116 56.504440,1426.058350 
	C82.677238,1442.399902 109.188583,1458.260254 137.494904,1470.710571 
	C157.544586,1479.529175 177.613495,1488.500122 198.270844,1495.687134 
	C219.661301,1503.128906 241.537735,1509.544556 263.629730,1514.500732 
	C288.605316,1520.103882 313.982483,1524.094116 339.328064,1527.810181 
	C356.921356,1530.389893 374.727325,1531.848145 392.492279,1532.825317 
	C407.173279,1533.632690 421.935944,1532.829468 436.657806,1533.049072 
	C456.068420,1533.338623 475.186981,1530.716431 494.334259,1528.049438 
	C508.350952,1526.097168 522.571838,1525.363281 536.457642,1522.776489 
	C557.750244,1518.809814 578.931091,1514.120361 599.982178,1509.007812 
	C632.741333,1501.051880 664.079834,1488.864990 694.546509,1474.629761 
	C729.881836,1458.119507 764.107849,1439.423218 795.699097,1416.450073 
	C816.341736,1401.438721 836.425781,1385.586182 855.989990,1369.191528 
	C868.518677,1358.692627 879.905396,1346.773193 891.325439,1335.025391 
	C902.290222,1323.746094 913.288757,1312.388550 923.108765,1300.132935 
	C938.958679,1280.351929 954.452759,1260.223755 968.954468,1239.444702 
	C979.682129,1224.073486 989.326782,1207.824707 998.133667,1191.264648 
	C1010.060547,1168.837891 1021.723389,1146.163574 1031.642334,1122.806885 
	C1041.145020,1100.430542 1048.832886,1077.225342 1056.261230,1054.045776 
	C1061.718018,1037.018433 1066.340576,1019.614563 1069.765259,1002.072021 
	C1074.327148,978.703186 1077.832764,955.097473 1080.898438,931.477539 
	C1083.040894,914.968811 1084.415527,898.283142 1084.811157,881.645020 
	C1085.280884,861.885254 1084.487183,842.087463 1083.932007,822.314880 
	C1083.677368,813.245667 1083.021729,804.157227 1081.954834,795.147766 
	C1079.866577,777.511108 1077.575928,759.892090 1074.980469,742.323181 
	C1070.936157,714.945557 1063.997192,688.186951 1055.758423,661.839661 
	C1042.635986,619.874512 1026.024048,579.278564 1004.353516,540.935059 
	C993.897949,522.435059 983.182129,504.030060 971.528381,486.274994 
	C961.241150,470.601898 949.971802,455.503754 938.253052,440.858337 
	C925.053772,424.362732 911.688293,407.849792 896.903931,392.810272 
	C877.736023,373.311462 857.604797,354.671509 836.922485,336.778229 
	C821.261658,323.229370 804.456665,310.906097 787.507751,298.964355 
	C757.792114,278.027435 726.562683,259.524536 693.281799,244.755600 
	C675.219299,236.740082 657.013428,228.984039 638.559387,221.929504 
	C612.711609,212.048538 586.086243,204.516724 558.953064,199.122025 
	C540.432190,195.439636 521.678955,192.925751 502.521881,189.276657 
	C492.093750,187.821228 481.696686,186.065765 471.230133,184.981491 
	C455.974335,183.401062 440.678284,181.385864 425.381622,181.222794 
	C404.332336,180.998367 383.249542,182.008469 362.214050,183.116165 
	C349.565186,183.782227 336.899139,185.126358 324.382629,187.076157 
	C303.121002,190.388306 281.755249,193.488159 260.820435,198.345871 
	C219.688568,207.890091 179.703674,221.231216 141.324753,238.969650 
	C110.552528,253.192352 80.953255,269.575775 53.345608,289.361389 
	C47.400963,293.621735 41.723793,298.255341 35.623425,302.947723 
	C41.329823,306.518463 45.866253,303.614014 49.920815,301.406219 
	C64.404129,293.519653 78.427322,284.775269 93.010223,277.086884 
	C132.489059,256.272888 173.190628,238.235153 216.071075,225.556931 
	C232.926208,220.573471 249.891998,215.746765 267.082581,212.172119 
	C287.173309,207.994415 307.499573,204.774780 327.846527,202.060684 
	C343.524872,199.969315 359.392090,199.288971 375.178070,198.015152 
	C377.165985,197.854736 379.170380,197.890503 381.167450,197.853317 
	C394.448120,197.605896 407.740112,196.913361 421.006439,197.245392 
	C434.354401,197.579468 447.676849,198.934265 461.720215,200.232101 
M252.054749,264.957520 
	C235.003845,267.603851 217.883759,269.871552 200.915939,272.972504 
	C161.275650,280.216888 123.434677,293.283783 87.598152,311.461182 
	C67.347382,321.732941 48.309464,334.405518 28.804155,346.128021 
	C25.455980,348.140167 22.504475,350.812378 19.369732,353.179688 
	C19.667309,353.711334 19.964886,354.242950 20.262463,354.774597 
	C32.628376,349.474915 45.351234,344.870789 57.291988,338.742676 
	C90.585869,321.656006 124.948997,307.444855 161.044189,297.461823 
	C193.571274,288.465637 226.523254,281.578552 259.947052,276.895294 
	C262.087372,276.595428 264.051361,275.037231 266.936462,274.027069 
	C269.704132,274.351379 272.467468,274.911621 275.240173,274.962616 
	C297.018066,275.363037 318.806915,275.385651 340.573669,276.097443 
	C355.094208,276.572296 369.660980,277.360870 384.068634,279.133911 
	C403.133301,281.480072 422.166077,284.387543 441.028381,288.012207 
	C478.583832,295.229065 514.224792,308.518433 548.800659,324.521088 
	C579.395813,338.681274 608.437866,355.663666 636.148315,374.965149 
	C663.609192,394.092773 689.124084,415.539368 713.072388,438.803223 
	C724.819275,450.214447 735.657593,462.610077 746.366394,475.026520 
	C756.264893,486.503326 765.787231,498.344238 774.861450,510.483643 
	C791.957825,533.355347 807.358154,557.373779 820.292480,582.850098 
	C828.288208,598.598938 836.363892,614.422974 842.705383,630.868103 
	C851.634949,654.024902 859.725403,677.569519 866.820129,701.352295 
	C874.531433,727.201843 879.436768,753.752014 882.076660,780.658997 
	C883.380005,793.942139 885.558105,807.208496 885.803101,820.510742 
	C886.200806,842.109741 885.733826,863.748169 884.860229,885.338684 
	C884.287903,899.482971 882.988770,913.667542 880.882080,927.663513 
	C877.779053,948.279968 874.344482,968.894714 869.837341,989.241272 
	C861.337341,1027.613281 848.443481,1064.627075 831.807251,1100.212646 
	C818.303589,1129.097656 802.377808,1156.649902 784.146057,1182.903564 
	C766.086609,1208.909058 745.559875,1232.795044 723.735352,1255.598877 
	C715.729004,1263.964478 706.991882,1271.680664 698.172791,1279.206543 
	C685.504761,1290.016724 672.726685,1300.733887 659.512268,1310.860229 
	C635.119812,1329.552124 609.141052,1345.922119 581.611511,1359.517456 
	C560.333313,1370.025757 538.677185,1379.992432 516.510254,1388.412598 
	C495.333435,1396.456665 473.494324,1403.017822 451.553925,1408.721436 
	C426.911163,1415.127563 401.849335,1419.941528 376.376556,1422.086304 
	C361.753571,1423.317383 347.150635,1425.653442 332.524261,1425.776367 
	C310.139771,1425.964722 287.707031,1425.235596 265.362976,1423.819702 
	C248.804581,1422.770508 232.295639,1420.401855 215.869644,1417.924805 
	C188.668732,1413.823120 162.069916,1406.965332 136.097702,1397.979370 
	C120.395386,1392.546631 104.778648,1386.641357 89.690842,1379.712891 
	C69.449089,1370.417603 49.755928,1359.927856 29.826954,1349.951416 
	C22.073059,1346.069702 14.318509,1342.189087 6.564232,1338.307983 
	C10.261924,1346.603882 16.313692,1352.392334 23.495605,1357.243774 
	C53.809246,1377.720825 85.758171,1395.179443 119.321655,1409.725586 
	C145.507278,1421.074219 172.295853,1430.744629 200.143295,1436.981445 
	C219.673569,1441.355469 239.447632,1444.740356 259.219238,1447.901367 
	C271.725952,1449.900757 284.416595,1451.650757 297.045471,1451.804199 
	C326.566315,1452.162842 356.153320,1453.211670 385.555298,1449.026978 
	C398.422180,1447.195679 411.472687,1446.316040 424.166901,1443.686646 
	C444.897247,1439.392700 465.486908,1434.339478 485.987030,1429.031494 
	C522.617554,1419.547241 557.774963,1405.920288 591.820679,1389.520386 
	C620.854797,1375.534790 648.269958,1358.786255 674.671753,1340.251465 
	C700.188599,1322.338013 723.435425,1301.817505 745.933411,1280.399658 
	C753.956787,1272.761475 761.390747,1264.425903 768.470764,1255.891724 
	C782.786621,1238.635864 797.528198,1221.635986 810.555786,1203.429688 
	C834.139099,1170.471680 853.520935,1135.025757 869.715576,1097.810303 
	C884.278503,1064.344849 896.121704,1029.969971 903.765442,994.338806 
	C908.893433,970.434814 912.453003,946.161499 915.863281,921.933594 
	C918.044434,906.438110 919.616028,890.733765 919.773926,875.106018 
	C919.998352,852.889954 919.230164,830.622986 917.829834,808.444458 
	C916.731750,791.054199 914.218811,773.741150 912.001221,756.436462 
	C908.271118,727.328064 900.965576,698.977356 892.384583,671.005493 
	C880.848267,633.399719 865.813293,597.197998 846.934021,562.611511 
	C832.055237,535.353821 815.895508,508.924500 796.289001,484.811798 
	C781.500793,466.624939 766.518005,448.527191 750.536560,431.402618 
	C738.582397,418.593384 725.273499,406.955994 711.881958,395.605988 
	C697.688293,383.576111 683.108765,371.904938 667.948242,361.131927 
	C633.262573,336.484375 596.312195,315.639435 556.666382,300.101440 
	C534.489319,291.409760 511.888824,283.458252 488.924469,277.212708 
	C466.476501,271.107605 443.428467,266.961365 420.445068,263.155792 
	C403.900269,260.416290 387.032745,259.609283 370.300201,258.035828 
	C367.325073,257.756042 364.304871,257.985291 361.307220,257.909821 
	C350.193115,257.630066 339.050964,256.677795 327.972809,257.173248 
	C311.164612,257.924927 294.381531,259.472229 277.626831,261.086731 
	C269.349365,261.884338 261.159241,263.588135 252.054749,264.957520 
M769.854736,911.870911 
	C770.215210,911.377014 770.858093,910.903259 770.895081,910.386230 
	C771.967224,895.421265 773.750977,880.455200 773.812073,865.482666 
	C773.895752,844.983826 772.805847,824.473083 771.881165,803.982666 
	C771.684082,799.615173 770.036987,795.313171 769.014587,790.047119 
	C769.984497,774.352356 766.511047,759.284485 763.246582,744.065186 
	C754.815308,704.757141 741.785461,667.036682 724.789856,630.715698 
	C711.763916,602.878052 696.084534,576.532776 678.291443,551.394653 
	C663.079407,529.903137 646.248413,509.810242 628.121582,490.815979 
	C618.863098,481.114410 608.919189,471.985168 598.656738,463.343445 
	C584.927856,451.782684 570.987793,440.391876 556.427124,429.916748 
	C528.229736,409.631165 498.017883,392.789703 466.100586,378.949646 
	C440.660889,367.918365 414.646301,358.516541 387.705811,352.179993 
	C366.472900,347.185883 344.916931,343.347534 323.336517,340.117889 
	C306.084320,337.535980 288.608734,335.918335 271.178009,335.211700 
	C254.939590,334.553436 238.617264,335.379547 222.354996,336.085388 
	C210.000244,336.621643 197.611099,337.472137 185.365479,339.129883 
	C170.733124,341.110718 156.142975,343.659943 141.703903,346.753540 
	C118.163635,351.797119 95.036179,358.556244 73.306496,369.011139 
	C51.769791,379.373199 30.664114,390.648987 9.562267,401.886230 
	C3.129301,405.311981 1.864174,411.123871 4.785805,417.703217 
	C16.167027,412.475372 27.474014,407.077820 38.944790,402.054260 
	C64.478477,390.871887 90.867699,382.071869 117.822731,375.093170 
	C139.627075,369.448029 161.693420,364.917694 184.197815,362.984161 
	C200.306747,361.600098 216.409058,359.550995 232.543594,359.218109 
	C248.580612,358.887238 264.685242,359.917175 280.702423,361.120087 
	C294.635437,362.166473 308.528229,364.005737 322.366882,365.994904 
	C347.153168,369.557648 371.346008,375.776062 395.106506,383.595001 
	C429.365051,394.868622 462.047913,409.634888 493.140289,427.984070 
	C521.930969,444.974976 548.752258,464.646912 573.399353,487.142365 
	C585.414978,498.109039 596.881104,509.838074 607.417908,522.224243 
	C620.636902,537.763428 633.257935,553.898987 645.035339,570.556152 
	C662.497070,595.252808 676.625793,621.924438 688.918396,649.580750 
	C699.911316,674.312866 708.771729,699.798584 715.794434,725.880554 
	C725.668579,762.553345 731.349792,800.027161 732.712646,837.916443 
	C733.564087,861.585327 732.581238,885.428711 730.679077,909.053467 
	C729.180908,927.660828 725.384216,946.121460 721.966003,964.528015 
	C714.712158,1003.588379 701.548889,1040.769531 684.646057,1076.617310 
	C672.380676,1102.629883 657.642822,1127.241211 640.899963,1150.653198 
	C626.565613,1170.697144 611.044678,1189.773804 593.891846,1207.437744 
	C584.428894,1217.182739 574.449524,1226.504028 564.057129,1235.249023 
	C550.957336,1246.272095 537.552673,1257.005615 523.647583,1266.983398 
	C497.132751,1286.009766 468.316498,1301.037476 438.355194,1313.881836 
	C415.327240,1323.753906 391.647064,1331.721924 367.407501,1338.060669 
	C343.370087,1344.346558 319.146973,1349.667236 294.372772,1352.042480 
	C279.106049,1353.506226 263.833740,1355.230835 248.524460,1355.831421 
	C235.944870,1356.324951 223.272614,1355.804810 210.703781,1354.883423 
	C194.945480,1353.728149 179.208832,1352.026245 163.538361,1349.981323 
	C138.519745,1346.716675 114.290634,1339.999023 90.362389,1332.153076 
	C61.879837,1322.813721 34.924717,1309.993652 8.419874,1296.150391 
	C6.898049,1295.355591 5.367126,1294.578003 3.648852,1293.693848 
	C2.706308,1301.569458 7.148033,1309.399780 14.795222,1313.336548 
	C48.408829,1330.640991 82.370453,1347.010254 118.703087,1358.183105 
	C155.714691,1369.564697 193.446075,1376.666748 232.000580,1378.772217 
	C250.040695,1379.757324 268.254578,1378.998535 286.311432,1377.825439 
	C303.531952,1376.706787 320.853271,1375.062622 337.764709,1371.771240 
	C360.623474,1367.322632 383.448090,1362.118530 405.719086,1355.364746 
	C439.676605,1345.066650 472.439667,1331.442505 503.498688,1314.114868 
	C520.474609,1304.644043 537.402588,1295.015381 553.780823,1284.562500 
	C577.177490,1269.630371 598.976807,1252.403931 618.977112,1233.206421 
	C633.792175,1218.986206 648.041870,1203.980713 660.975891,1188.052124 
	C673.913940,1172.118774 685.504761,1154.989502 696.611389,1137.694214 
	C714.232971,1110.254028 727.861877,1080.728027 739.022217,1050.107178 
	C747.984497,1025.516724 755.520752,1000.461426 760.509705,974.755493 
	C764.532288,954.028442 770.027649,933.449341 769.854736,911.870911 
M399.497162,1258.002197 
	C414.200165,1248.907471 429.584625,1240.734131 443.436554,1230.488647 
	C461.448822,1217.166260 478.626465,1202.630005 495.412872,1187.768433 
	C504.926880,1179.345459 513.321167,1169.547729 521.531128,1159.789673 
	C531.600647,1147.821411 541.376526,1135.554932 550.522888,1122.871826 
	C569.219421,1096.945923 584.271729,1068.924561 596.817566,1039.533325 
	C606.267639,1017.394531 614.358154,994.764587 619.919556,971.362244 
	C624.243835,953.165894 627.933960,934.777771 630.906494,916.314026 
	C633.363220,901.054199 635.453430,885.578918 635.734741,870.163147 
	C636.124878,848.791443 635.009949,827.367676 633.860718,806.002808 
	C633.279175,795.190735 631.714722,784.363220 629.707153,773.709961 
	C625.014526,748.809143 618.688904,724.310730 609.783081,700.534912 
	C599.104370,672.026367 585.950439,644.733093 569.954102,618.810303 
	C553.082031,591.468445 533.738159,565.963318 511.268219,543.063416 
	C497.371613,528.900818 482.280670,515.862976 467.246033,502.875732 
	C446.718323,485.143524 423.924652,470.579407 400.136749,457.665070 
	C366.388702,439.343384 330.845673,425.398438 293.765625,415.380524 
	C266.378632,407.981415 238.523117,402.545868 210.252243,401.288727 
	C179.174255,399.906769 148.051102,400.497803 117.248146,406.846771 
	C81.491539,414.216736 47.397835,425.952850 15.162011,443.021088 
	C7.060493,447.310699 1.424620,453.580109 3.040430,463.732819 
	C3.526264,466.785522 4.477804,469.764130 5.264928,472.976349 
	C16.075947,468.863434 26.422470,464.642548 36.962242,460.977356 
	C58.258953,453.571442 79.836952,447.050842 102.233398,443.909637 
	C120.636856,441.328491 139.065948,438.621307 157.578430,437.235718 
	C169.764679,436.323669 182.119385,437.647919 194.398148,437.989777 
	C214.719360,438.555511 234.655807,441.826233 254.552139,445.864655 
	C284.549927,451.953369 313.406860,461.506073 341.144775,474.198212 
	C364.117889,484.710144 386.172424,496.984833 406.771454,511.832977 
	C431.010864,529.305115 453.422394,548.669067 473.525208,570.847412 
	C491.084351,590.219421 507.086365,610.686096 521.172302,632.685791 
	C536.719421,656.967590 549.248291,682.753906 558.996338,709.846680 
	C568.424255,736.049683 575.760864,762.843262 579.009949,790.582153 
	C580.945435,807.106140 582.965515,823.661011 583.803345,840.259705 
	C584.454346,853.155762 583.817688,866.176331 582.880310,879.078125 
	C581.723206,895.003113 580.675415,911.052612 577.738708,926.702759 
	C573.928772,947.007019 569.179871,967.232727 563.260010,987.021057 
	C553.826172,1018.555786 540.048889,1048.305054 523.181030,1076.637329 
	C510.063629,1098.670166 495.148773,1119.385742 477.938080,1138.314819 
	C467.891113,1149.364868 457.023285,1159.781616 445.707794,1169.535645 
	C432.870789,1180.601196 419.497223,1191.137695 405.680847,1200.952271 
	C384.385071,1216.080078 361.579254,1228.760986 337.548309,1239.061157 
	C325.148956,1244.375732 312.711151,1249.868896 299.822510,1253.710449 
	C280.643890,1259.426636 261.214111,1264.590576 241.584564,1268.415649 
	C224.506516,1271.743408 207.051865,1273.866455 189.674652,1274.728882 
	C171.789597,1275.616577 153.764938,1274.880981 135.861099,1273.833984 
	C120.927094,1272.960693 105.945816,1271.363892 91.221924,1268.753540 
	C62.051640,1263.582520 33.504860,1255.828003 5.856995,1245.106812 
	C-0.580276,1257.370605 2.706891,1270.334351 16.705660,1276.859741 
	C35.530094,1285.634521 54.933754,1292.847656 74.944710,1298.561279 
	C104.066299,1306.876221 133.772568,1311.460327 163.925323,1312.835205 
	C177.827072,1313.469238 191.843796,1312.834106 205.746063,1311.873047 
	C221.507065,1310.783325 237.362030,1309.593750 252.879807,1306.800903 
	C274.026764,1302.995117 295.150360,1298.543091 315.818176,1292.716064 
	C344.765869,1284.554688 372.358337,1272.637939 399.497162,1258.002197 
M81.489365,239.007797 
	C98.785812,227.915588 116.082253,216.823395 133.883942,205.407181 
	C115.138794,205.199310 80.495682,228.490097 73.528313,243.653931 
	C76.093567,242.214859 78.518845,240.854309 81.489365,239.007797 
M19.615957,1438.168579 
	C22.659079,1448.337280 31.999113,1458.577393 42.722363,1455.414673 
	C35.225742,1448.949097 27.931168,1442.650635 20.580647,1436.417847 
	C20.507301,1436.355713 19.696592,1437.163086 19.615957,1438.168579 
z"/>
<path fill="#000000" opacity="1.000000" stroke="none" 
	d="
M1451.000000,116.000000 
	C1451.000000,347.028046 1451.000000,578.056091 1450.572266,809.573975 
	C1449.785767,809.556396 1449.152710,809.071594 1449.108521,808.538086 
	C1448.034790,795.555725 1447.318481,782.536316 1445.920166,769.590332 
	C1444.456665,756.040283 1442.722900,742.495972 1440.426147,729.065674 
	C1437.662231,712.903748 1434.795532,696.712280 1430.859253,680.809387 
	C1425.470947,659.040771 1419.033447,637.531921 1413.028809,615.480347 
	C1412.787598,612.922974 1412.949829,610.665039 1412.276611,608.692017 
	C1407.328247,594.188904 1402.400146,579.674011 1397.115479,565.291443 
	C1380.160156,519.146851 1359.784668,474.553864 1335.854736,431.601898 
	C1319.296143,401.880554 1301.131226,373.198059 1281.352417,345.482697 
	C1261.843994,318.146637 1240.626221,292.222443 1217.851562,267.641327 
	C1202.944092,251.551331 1187.045532,236.304001 1170.797729,221.552780 
	C1154.548462,206.799942 1137.595093,192.779755 1120.439819,179.077530 
	C1096.834229,160.223251 1071.767822,143.408401 1045.825073,127.908920 
	C1039.487061,124.122261 1033.301270,120.081078 1027.505371,116.083984 
	C1168.976807,116.007370 1309.988403,116.003685 1451.000000,116.000000 
z"/>
<path fill="#2E3191" opacity="1.000000" stroke="none" 
	d="
M1.000000,1195.444092 
	C1.682619,1193.813354 2.702682,1192.702881 2.990849,1191.427246 
	C4.415025,1185.121948 5.253332,1184.735352 11.610075,1185.931030 
	C30.002224,1189.390381 48.327118,1193.579346 66.882309,1195.684814 
	C82.331413,1197.437744 98.134460,1197.716553 113.665100,1196.763550 
	C146.127884,1194.771851 177.868484,1188.461304 208.520966,1177.233154 
	C245.921951,1163.532715 281.149994,1145.713135 312.424622,1120.870728 
	C325.356598,1110.598389 337.948547,1099.677856 349.382782,1087.790039 
	C367.947052,1068.489136 383.505524,1046.815918 396.487854,1023.251770 
	C407.356781,1003.523560 416.375763,983.037659 423.509430,961.756897 
	C430.358551,941.324951 435.588196,920.421509 437.977112,898.937012 
	C439.233948,887.633728 440.471832,876.293823 440.884857,864.940125 
	C441.383423,851.235535 441.888580,837.428040 440.804504,823.791138 
	C438.756104,798.024841 434.044983,772.681641 426.164612,747.942810 
	C420.039490,728.714355 412.606689,710.079407 403.055511,692.328857 
	C392.251892,672.250732 379.922058,653.168091 364.626587,636.148743 
	C357.540649,628.264160 350.711121,620.096680 343.099396,612.747131 
	C321.178650,591.581543 297.059357,573.302307 270.550079,558.123962 
	C247.260101,544.788940 222.883209,533.927612 197.229660,526.359375 
	C180.740845,521.494873 163.696701,518.425354 146.802933,515.043579 
	C126.411118,510.961456 105.678436,510.186554 84.995834,511.140503 
	C62.454586,512.180176 40.151070,515.465027 18.398539,521.810974 
	C14.133274,523.055298 9.852669,524.247009 5.574065,525.464478 
	C-1.115256,507.866974 3.474247,498.598724 21.746031,493.280334 
	C37.029747,488.831757 52.504307,484.912659 68.077682,481.628418 
	C78.987732,479.327637 90.184120,478.288269 101.294296,477.063446 
	C110.149185,476.087280 119.067322,475.155060 127.956848,475.160004 
	C138.521362,475.165863 149.103027,475.979736 159.644165,476.846130 
	C168.826080,477.600830 177.996979,478.679199 187.111267,480.029541 
	C208.810486,483.244476 230.080902,488.567932 250.479370,496.473572 
	C269.058258,503.673981 287.337677,511.846924 305.140594,520.800964 
	C329.176300,532.889771 351.946167,547.238953 372.325073,564.947937 
	C385.453369,576.356262 398.643524,587.828308 410.603546,600.414307 
	C428.116943,618.844421 443.057953,639.395691 456.111420,661.282532 
	C470.029785,684.619690 481.646301,709.076172 489.306610,735.098816 
	C494.904663,754.115723 499.333008,773.573364 502.760803,793.101624 
	C505.401703,808.146973 506.125214,823.585876 506.867432,838.890259 
	C507.515228,852.248291 507.740479,865.712524 506.848206,879.042480 
	C504.733459,910.635315 498.952026,941.643982 489.912628,972.019043 
	C482.649780,996.424500 473.145508,1019.925476 461.212708,1042.414551 
	C449.366089,1064.741211 436.009338,1086.143677 419.225586,1105.110352 
	C407.351166,1118.529053 395.260284,1131.878052 382.136383,1144.038940 
	C364.834106,1160.071533 345.484192,1173.569702 325.070312,1185.523804 
	C302.194702,1198.919678 278.217010,1209.975342 252.832367,1217.320801 
	C232.212952,1223.287354 211.080414,1227.595825 190.028046,1231.922607 
	C161.276749,1237.831421 132.015701,1238.057861 102.906998,1236.694946 
	C85.585892,1235.884155 68.275002,1232.715698 51.207813,1229.348633 
	C39.199081,1226.979492 27.537146,1222.708374 15.856298,1218.872559 
	C8.232006,1216.369019 4.448287,1209.977661 1.380373,1202.932129 
	C1.000000,1200.629395 1.000000,1198.258911 1.000000,1195.444092 
z"/>
<path fill="#2E3092" opacity="1.000000" stroke="none" 
	d="
M2.159025,560.967957 
	C5.342514,550.472839 10.139582,547.151245 21.648386,546.968384 
	C33.759789,546.776001 45.876900,545.860352 57.974174,546.107971 
	C77.437599,546.506287 96.683502,549.035217 115.720551,553.312073 
	C143.254669,559.498047 169.268768,569.614502 194.003265,583.046875 
	C212.874893,593.295471 230.631653,605.260620 246.836746,619.397339 
	C254.822311,626.363647 262.937225,633.263611 270.243927,640.909973 
	C287.950684,659.439819 303.479980,679.679443 316.459442,701.859558 
	C332.051392,728.504028 343.639862,756.745789 350.309387,786.870911 
	C352.895660,798.552795 354.470184,810.491333 355.904144,822.385498 
	C357.068970,832.047058 358.021637,841.826782 357.882538,851.537109 
	C357.239990,896.391357 350.049805,940.094971 332.579956,981.653320 
	C321.669556,1007.607666 307.680511,1031.832153 289.836731,1053.781738 
	C272.638977,1074.936646 253.000870,1093.321899 230.788391,1109.158569 
	C202.691223,1129.190796 171.989273,1143.844116 138.980453,1153.237183 
	C120.724808,1158.432007 101.879402,1161.878784 83.093239,1164.771729 
	C70.406136,1166.725464 57.333633,1167.154907 44.479851,1166.759644 
	C32.735542,1166.398438 20.620365,1165.207886 10.573759,1158.032104 
	C7.009019,1155.485962 4.634024,1151.273926 1.357937,1147.911255 
	C1.000000,1139.979126 1.000000,1131.958130 1.382401,1123.537109 
	C2.171415,1122.485229 2.760398,1121.883545 2.955754,1121.173584 
	C4.507185,1115.534790 5.995706,1114.639526 11.792691,1114.974365 
	C20.281183,1115.464600 28.825552,1116.344116 37.274872,1115.846924 
	C50.909424,1115.044922 64.709488,1114.360474 78.041595,1111.660767 
	C107.979355,1105.598267 136.042862,1094.424805 161.509735,1077.217651 
	C179.259918,1065.224487 195.268906,1051.361694 209.471313,1035.226074 
	C222.636520,1020.268799 233.665085,1003.988220 243.161133,986.564209 
	C255.938919,963.118713 265.141510,938.283447 270.700745,912.237793 
	C273.919373,897.158142 276.743256,881.824524 277.706177,866.477234 
	C278.843658,848.347778 278.338715,830.125000 275.186157,811.988892 
	C271.498199,790.773071 265.625702,770.278870 256.805908,750.755737 
	C240.667236,715.032043 217.947800,684.098022 188.072083,658.451111 
	C172.336777,644.943115 155.320038,633.424255 136.908844,624.083130 
	C118.226677,614.604736 98.709061,606.954346 78.033409,603.134827 
	C63.509670,600.451660 48.789295,598.715637 34.095318,597.123413 
	C27.288689,596.385864 20.335680,597.003540 13.449040,596.998840 
	C5.460434,596.993347 3.115943,594.583679 2.966761,586.731140 
	C2.854623,580.828552 2.439325,574.931641 2.089256,568.589600 
	C2.066027,565.753967 2.112526,563.360962 2.159025,560.967957 
z"/>
<path fill="#FFFFFF" opacity="1.000000" stroke="none" 
	d="
M1451.000000,1025.000000 
	C1451.000000,1256.912598 1451.000000,1488.825195 1451.000000,1721.000000 
	C1309.307617,1721.000000 1167.614990,1721.000000 1025.461182,1720.531372 
	C1024.946899,1681.385498 1024.893799,1642.708130 1024.980591,1603.720947 
	C1025.759644,1603.221558 1026.399048,1603.031982 1027.500732,1602.915649 
	C1162.560669,1602.988770 1297.158325,1602.988770 1432.000000,1602.988770 
	C1432.000000,1600.978516 1432.000000,1599.503662 1432.000000,1598.028809 
	C1432.000000,1410.197510 1432.000244,1222.366089 1431.993408,1034.534790 
	C1431.993286,1033.038574 1431.896118,1031.542358 1431.912109,1029.644287 
	C1432.330322,1027.775146 1432.680420,1026.307983 1433.492676,1024.914673 
	C1439.636353,1024.992432 1445.318237,1024.996216 1451.000000,1025.000000 
z"/>
<path fill="#000000" opacity="1.000000" stroke="none" 
	d="
M2.158984,569.032227 
	C2.439325,574.931641 2.854623,580.828552 2.966761,586.731140 
	C3.115943,594.583679 5.460434,596.993347 13.449040,596.998840 
	C20.335680,597.003540 27.288689,596.385864 34.095318,597.123413 
	C48.789295,598.715637 63.509670,600.451660 78.033409,603.134827 
	C98.709061,606.954346 118.226677,614.604736 136.908844,624.083130 
	C155.320038,633.424255 172.336777,644.943115 188.072083,658.451111 
	C217.947800,684.098022 240.667236,715.032043 256.805908,750.755737 
	C265.625702,770.278870 271.498199,790.773071 275.186157,811.988892 
	C278.338715,830.125000 278.843658,848.347778 277.706177,866.477234 
	C276.743256,881.824524 273.919373,897.158142 270.700745,912.237793 
	C265.141510,938.283447 255.938919,963.118713 243.161133,986.564209 
	C233.665085,1003.988220 222.636520,1020.268799 209.471313,1035.226074 
	C195.268906,1051.361694 179.259918,1065.224487 161.509735,1077.217651 
	C136.042862,1094.424805 107.979355,1105.598267 78.041595,1111.660767 
	C64.709488,1114.360474 50.909424,1115.044922 37.274872,1115.846924 
	C28.825552,1116.344116 20.281183,1115.464600 11.792691,1114.974365 
	C5.995706,1114.639526 4.507185,1115.534790 2.955754,1121.173584 
	C2.760398,1121.883545 2.171415,1122.485229 1.382401,1123.068604 
	C1.000000,1090.645752 1.000000,1058.291504 1.404385,1025.307739 
	C1.872513,1022.852844 1.991904,1021.027405 1.992048,1019.202026 
	C2.000899,906.641541 1.999257,794.081116 2.006565,681.520630 
	C2.006683,679.692932 2.105241,677.865295 2.467192,676.318481 
	C2.851016,678.592285 2.990536,680.585205 2.990705,682.578064 
	C3.001069,804.575867 2.998919,926.573608 3.001982,1048.571411 
	C3.002238,1058.756592 8.006315,1063.776611 17.944012,1062.898926 
	C24.974216,1062.278198 32.021500,1061.309814 38.920841,1059.838623 
	C75.136429,1052.115967 107.328148,1036.103516 134.915848,1011.423950 
	C152.262939,995.905518 166.809906,977.943115 178.221664,957.508606 
	C194.080673,929.110840 203.402176,898.683105 204.707855,866.280823 
	C205.329590,850.851379 204.127365,835.093750 201.573639,819.849609 
	C197.552704,795.847107 189.102814,773.122498 176.556213,752.084290 
	C165.346893,733.288452 152.194199,716.156616 135.967102,701.260132 
	C119.992653,686.595459 102.503258,674.568787 82.655487,665.856934 
	C61.844551,656.722351 40.267960,651.403442 17.415867,652.007263 
	C10.535799,652.189087 5.311813,655.931458 3.383032,662.326355 
	C2.645294,664.772339 2.547348,667.411255 2.084436,669.505005 
	C2.060350,635.709167 2.109667,602.370728 2.158984,569.032227 
z"/>
<path fill="#FFFFFF" opacity="1.000000" stroke="none" 
	d="
M1451.000000,115.532150 
	C1309.988403,116.003685 1168.976807,116.007370 1027.171753,116.011887 
	C1025.865967,115.663025 1025.353516,115.313316 1024.915039,114.502426 
	C1024.992554,76.360825 1024.996338,38.680412 1025.000000,1.000000 
	C1166.885498,1.000000 1308.770996,1.000000 1451.000000,1.000000 
	C1451.000000,39.020741 1451.000000,77.042519 1451.000000,115.532150 
z"/>
<path fill="#2F318F" opacity="1.000000" stroke="none" 
	d="
M1027.038330,1602.842529 
	C1026.399048,1603.031982 1025.759644,1603.221558 1024.628662,1603.734131 
	C1015.202454,1609.004150 1006.483521,1614.399780 997.293213,1618.813843 
	C969.180969,1632.315918 941.090515,1645.895996 912.612122,1658.594727 
	C878.456726,1673.824829 842.918823,1685.373047 806.770935,1694.807495 
	C773.553650,1703.476929 739.948730,1710.512085 705.722473,1713.992798 
	C687.367188,1715.859375 668.969910,1717.311401 650.603271,1719.072021 
	C649.352112,1719.192017 648.198853,1720.333496 647.000000,1721.000000 
	C617.979126,1721.000000 588.958191,1721.000000 559.468628,1721.000000 
	C557.799866,1720.333618 556.645447,1719.191895 555.392822,1719.071289 
	C533.732788,1716.987427 512.030518,1715.309082 490.397949,1712.979980 
	C455.223877,1709.193237 420.690979,1701.768799 386.170746,1694.206909 
	C344.883179,1685.162476 304.911224,1672.251343 266.077667,1655.605469 
	C229.889130,1640.093506 195.192459,1621.833008 162.031845,1600.614136 
	C147.600845,1591.379883 132.612213,1582.953613 118.647072,1573.071777 
	C103.336823,1562.237915 88.857872,1550.220703 74.125610,1538.581421 
	C63.780655,1530.408203 53.595200,1522.032349 43.387657,1513.686768 
	C40.187832,1511.070679 37.000740,1508.408203 34.061386,1505.509888 
	C23.387400,1494.984375 12.820933,1484.349854 1.933502,1473.476440 
	C3.860095,1471.599487 5.613412,1469.891357 7.389637,1468.160889 
	C13.527688,1473.866455 19.507324,1479.370361 25.426489,1484.938477 
	C37.394291,1496.196655 48.955547,1507.924561 61.405354,1518.619629 
	C70.113037,1526.100220 80.031166,1532.168579 89.383545,1538.902710 
	C112.098076,1555.258545 134.421875,1572.191895 157.611038,1587.843750 
	C180.223221,1603.105835 204.757584,1615.119019 229.645004,1626.271729 
	C247.391724,1634.224609 264.988464,1642.658325 283.202179,1649.388916 
	C310.962067,1659.647339 339.090057,1668.953613 367.273529,1678.004517 
	C383.059235,1683.073853 399.169495,1687.254395 415.326141,1691.005737 
	C426.977570,1693.711060 438.929169,1695.163330 450.779022,1696.963013 
	C462.478607,1698.739868 474.195679,1700.446533 485.947418,1701.822266 
	C497.082520,1703.125488 508.254211,1704.267700 519.442383,1704.933472 
	C540.263855,1706.172729 561.099976,1707.490845 581.946777,1707.879639 
	C600.771118,1708.230713 619.619080,1707.444092 638.453796,1707.031128 
	C644.403137,1706.900757 650.364746,1706.566040 656.283875,1705.963501 
	C674.629517,1704.095459 692.976379,1702.213257 711.288086,1700.044189 
	C743.820007,1696.190796 775.773621,1689.333984 807.438721,1681.047119 
	C837.549805,1673.166992 867.082458,1663.554565 896.193115,1652.505859 
	C926.336243,1641.065186 955.607361,1627.741089 984.159058,1612.868408 
	C1019.286682,1594.570190 1053.217529,1574.220459 1084.974609,1550.476440 
	C1104.362183,1535.981079 1124.079956,1521.770386 1142.233032,1505.819946 
	C1165.046021,1485.774902 1187.433228,1465.034668 1208.120117,1442.838501 
	C1229.915283,1419.453125 1250.518921,1394.772095 1269.733765,1369.221191 
	C1287.713135,1345.312988 1303.861816,1319.936279 1319.552734,1294.428711 
	C1331.556519,1274.915039 1342.176392,1254.479858 1352.358032,1233.932495 
	C1366.409668,1205.574707 1379.093384,1176.535400 1388.901489,1146.406860 
	C1397.550903,1119.837769 1406.148071,1093.192139 1413.126465,1066.156372 
	C1419.272949,1042.343994 1423.515381,1018.011536 1427.899536,993.782349 
	C1430.883179,977.294128 1432.950317,960.621155 1434.874146,943.966919 
	C1436.105469,933.307678 1436.582520,922.540771 1436.952759,911.806824 
	C1437.782349,887.756592 1439.034058,863.689270 1438.775635,839.643250 
	C1438.573853,820.849670 1436.510254,802.065430 1434.984497,783.300476 
	C1433.903198,770.001343 1432.646118,756.700928 1430.902344,743.475586 
	C1429.227539,730.774414 1427.313721,718.065002 1424.642578,705.543091 
	C1418.785645,678.085815 1412.372070,650.747314 1406.235352,623.349243 
	C1405.913574,621.913330 1406.051025,620.374695 1406.326172,618.407349 
	C1408.800415,617.257812 1410.922974,616.584778 1413.045532,615.911743 
	C1419.033447,637.531921 1425.470947,659.040771 1430.859253,680.809387 
	C1434.795532,696.712280 1437.662231,712.903748 1440.426147,729.065674 
	C1442.722900,742.495972 1444.456665,756.040283 1445.920166,769.590332 
	C1447.318481,782.536316 1448.034790,795.555725 1449.108521,808.538086 
	C1449.152710,809.071594 1449.785767,809.556396 1450.572266,810.031982 
	C1451.000000,839.354248 1451.000000,868.708435 1450.572266,898.499390 
	C1449.762939,900.438354 1449.145630,901.925781 1449.050049,903.446045 
	C1448.862671,906.425293 1449.221924,909.450134 1448.905518,912.408142 
	C1447.352539,926.931274 1445.866821,941.467163 1443.942627,955.943481 
	C1442.021973,970.393616 1439.663574,984.786865 1437.393188,999.188721 
	C1436.042480,1007.755676 1434.491577,1016.291077 1433.030518,1024.840698 
	C1432.680420,1026.307983 1432.330322,1027.775146 1431.611572,1029.885498 
	C1431.092285,1031.846313 1431.081177,1033.198120 1430.769287,1034.476440 
	C1426.565063,1051.703979 1422.410156,1068.944214 1418.065308,1086.136475 
	C1408.049072,1125.769165 1395.024658,1164.390137 1379.475708,1202.205444 
	C1366.904785,1232.778076 1352.900635,1262.619873 1336.842163,1291.517700 
	C1322.654053,1317.049561 1306.959595,1341.595093 1290.278442,1365.570312 
	C1270.445923,1394.074829 1248.599121,1420.943237 1224.956909,1446.283447 
	C1210.329956,1461.960815 1194.934814,1477.021606 1178.927124,1491.284668 
	C1159.472778,1508.618774 1139.677368,1525.716064 1118.807861,1541.277222 
	C1095.333984,1558.779785 1070.532837,1574.507202 1046.230347,1590.889893 
	C1039.985229,1595.099731 1033.443726,1598.870239 1027.038330,1602.842529 
z"/>
<path fill="#000000" opacity="1.000000" stroke="none" 
	d="
M647.468628,1721.000000 
	C648.198853,1720.333496 649.352112,1719.192017 650.603271,1719.072021 
	C668.969910,1717.311401 687.367188,1715.859375 705.722473,1713.992798 
	C739.948730,1710.512085 773.553650,1703.476929 806.770935,1694.807495 
	C842.918823,1685.373047 878.456726,1673.824829 912.612122,1658.594727 
	C941.090515,1645.895996 969.180969,1632.315918 997.293213,1618.813843 
	C1006.483521,1614.399780 1015.202454,1609.004150 1024.488892,1604.044189 
	C1024.893799,1642.708130 1024.946899,1681.385498 1025.000000,1720.531372 
	C899.312439,1721.000000 773.624878,1721.000000 647.468628,1721.000000 
z"/>
<path fill="#000000" opacity="1.000000" stroke="none" 
	d="
M1024.531372,1.000000 
	C1024.996338,38.680412 1024.992554,76.360825 1024.562378,114.487831 
	C1022.637390,114.245850 1021.120789,113.593796 1019.642883,112.863312 
	C991.654724,99.029640 964.195129,83.963318 935.539673,71.688499 
	C906.676208,59.324558 876.773010,49.304943 847.053711,39.045040 
	C816.718872,28.572664 785.694519,20.475214 754.049927,14.854310 
	C734.485107,11.379103 714.966064,7.641541 695.457031,3.864048 
	C693.204285,3.427857 691.147583,1.979227 689.000000,1.000001 
	C800.687561,1.000000 912.375183,1.000000 1024.531372,1.000000 
z"/>
<path fill="#312F7D" opacity="1.000000" stroke="none" 
	d="
M688.531372,1.000001 
	C691.147583,1.979227 693.204285,3.427857 695.457031,3.864048 
	C714.966064,7.641541 734.485107,11.379103 754.049927,14.854310 
	C785.694519,20.475214 816.718872,28.572664 847.053711,39.045040 
	C876.773010,49.304943 906.676208,59.324558 935.539673,71.688499 
	C964.195129,83.963318 991.654724,99.029640 1019.642883,112.863312 
	C1021.120789,113.593796 1022.637390,114.245850 1024.488525,114.949020 
	C1025.353516,115.313316 1025.865967,115.663025 1026.711914,116.084824 
	C1033.301270,120.081078 1039.487061,124.122261 1045.825073,127.908920 
	C1071.767822,143.408401 1096.834229,160.223251 1120.439819,179.077530 
	C1137.595093,192.779755 1154.548462,206.799942 1170.797729,221.552780 
	C1187.045532,236.304001 1202.944092,251.551331 1217.851562,267.641327 
	C1240.626221,292.222443 1261.843994,318.146637 1281.352417,345.482697 
	C1301.131226,373.198059 1319.296143,401.880554 1335.854736,431.601898 
	C1359.784668,474.553864 1380.160156,519.146851 1397.115479,565.291443 
	C1402.400146,579.674011 1407.328247,594.188904 1412.276611,608.692017 
	C1412.949829,610.665039 1412.787598,612.922974 1413.028809,615.480347 
	C1410.922974,616.584778 1408.800415,617.257812 1406.290039,617.975342 
	C1402.264404,608.158447 1398.812866,598.223389 1394.951782,588.450134 
	C1385.437744,564.368408 1376.020630,540.241455 1366.005371,516.367371 
	C1359.740967,501.435059 1353.235596,486.504608 1345.467163,472.324463 
	C1331.747925,447.281769 1317.993896,422.149963 1302.371704,398.287964 
	C1286.414673,373.914581 1268.601685,350.709351 1250.810425,327.601501 
	C1240.236206,313.867493 1228.320801,301.141327 1216.668945,288.269287 
	C1205.752686,276.209900 1194.860474,264.061859 1183.110840,252.839493 
	C1165.987427,236.484634 1148.247925,220.763092 1130.513916,205.061996 
	C1103.637085,181.266006 1074.483154,160.427216 1044.212769,141.271881 
	C1024.416504,128.744644 1003.890381,117.300522 983.247192,106.196701 
	C940.806335,83.368065 896.166382,65.630966 850.236633,51.236961 
	C819.604553,41.637089 788.516418,33.611061 756.869080,28.011278 
	C737.115051,24.515947 717.347046,21.039028 697.495483,18.176655 
	C683.960999,16.225136 670.269287,15.368952 656.651733,13.985703 
	C649.598022,13.269199 642.552490,12.471565 635.392212,11.066613 
	C638.451599,5.882572 643.260437,7.339542 647.622131,6.944167 
	C652.161499,6.532691 657.155334,6.693416 659.000000,1.000000 
	C668.687561,1.000000 678.375122,1.000000 688.531372,1.000001 
z"/>
<path fill="#2F308D" opacity="1.000000" stroke="none" 
	d="
M552.100281,11.066583 
	C546.432495,11.709743 540.773804,12.451197 535.095032,12.975513 
	C523.438782,14.051725 511.736420,14.713200 500.118439,16.095306 
	C485.758423,17.803616 471.323700,19.374151 457.172363,22.242987 
	C428.705170,28.014009 400.135834,33.615749 372.119080,41.178249 
	C345.333160,48.408516 318.806091,57.017807 292.879730,66.896248 
	C266.117554,77.093170 239.807327,88.707626 214.037613,101.222069 
	C178.115097,118.666969 143.987762,139.447235 111.391960,162.515625 
	C95.682312,173.633530 81.155327,186.420502 66.060020,198.410446 
	C63.502251,200.442047 60.778210,202.264313 57.660194,204.165344 
	C57.189396,204.147385 56.920586,203.936127 56.920586,203.936127 
	C60.566422,198.505127 63.365143,192.161591 68.031433,187.829880 
	C78.280266,178.315964 89.159767,169.400345 100.360031,161.012604 
	C114.845139,150.164886 129.528885,139.495300 144.792542,129.796219 
	C164.106873,117.523224 183.851578,105.875595 203.834732,94.717720 
	C247.612976,70.273521 293.970520,51.802288 341.798737,37.003407 
	C371.468414,27.823095 401.563995,20.222084 432.207214,15.013999 
	C450.984558,11.822623 469.817566,8.950956 488.652252,6.112641 
	C491.910858,5.621578 495.425568,6.554973 498.595428,5.834085 
	C501.300720,5.218845 503.680450,3.172059 506.102112,1.379261 
	C514.687561,1.000000 523.375183,1.000000 532.681641,1.309683 
	C535.891113,3.139104 538.318726,5.181720 541.111694,6.052681 
	C545.033264,7.275585 549.348450,7.352386 552.100281,11.066583 
z"/>
<path fill="#424190" opacity="1.000000" stroke="none" 
	d="
M552.560913,11.040583 
	C549.348450,7.352386 545.033264,7.275585 541.111694,6.052681 
	C538.318726,5.181720 535.891113,3.139104 533.150269,1.309683 
	C574.687561,1.000000 616.375122,1.000000 658.531372,1.000000 
	C657.155334,6.693416 652.161499,6.532691 647.622131,6.944167 
	C643.260437,7.339542 638.451599,5.882572 635.124634,10.751392 
	C607.652649,11.058293 580.337097,11.036438 552.560913,11.040583 
z"/>
<path fill="#000000" opacity="1.000000" stroke="none" 
	d="
M1433.492554,1024.914673 
	C1434.491577,1016.291077 1436.042480,1007.755676 1437.393188,999.188721 
	C1439.663574,984.786865 1442.021973,970.393616 1443.942627,955.943481 
	C1445.866821,941.467163 1447.352539,926.931274 1448.905518,912.408142 
	C1449.221924,909.450134 1448.862671,906.425293 1449.050049,903.446045 
	C1449.145630,901.925781 1449.762939,900.438354 1450.572266,898.968018 
	C1451.000000,940.687561 1451.000000,982.375183 1451.000000,1024.531372 
	C1445.318237,1024.996216 1439.636353,1024.992432 1433.492554,1024.914673 
z"/>
<path fill="#FFFFFF" opacity="1.000000" stroke="none" 
	d="
M2.157861,676.037598 
	C2.105241,677.865295 2.006683,679.692932 2.006565,681.520630 
	C1.999257,794.081116 2.000899,906.641541 1.992048,1019.202026 
	C1.991904,1021.027405 1.872513,1022.852844 1.404385,1024.839111 
	C1.000000,683.666687 1.000000,342.333344 1.500000,1.000000 
	C2.003752,187.349930 2.007505,373.699860 2.085141,560.508911 
	C2.112526,563.360962 2.066027,565.753967 2.089256,568.589600 
	C2.109667,602.370728 2.060350,635.709167 2.015295,669.934326 
	C2.065657,672.559875 2.111759,674.298706 2.157861,676.037598 
z"/>
<path fill="#2E3191" opacity="1.000000" stroke="none" 
	d="
M399.219391,1258.248901 
	C372.358337,1272.637939 344.765869,1284.554688 315.818176,1292.716064 
	C295.150360,1298.543091 274.026764,1302.995117 252.879807,1306.800903 
	C237.362030,1309.593750 221.507065,1310.783325 205.746063,1311.873047 
	C191.843796,1312.834106 177.827072,1313.469238 163.925323,1312.835205 
	C133.772568,1311.460327 104.066299,1306.876221 74.944710,1298.561279 
	C54.933754,1292.847656 35.530094,1285.634521 16.705660,1276.859741 
	C2.706891,1270.334351 -0.580276,1257.370605 5.856995,1245.106812 
	C33.504860,1255.828003 62.051640,1263.582520 91.221924,1268.753540 
	C105.945816,1271.363892 120.927094,1272.960693 135.861099,1273.833984 
	C153.764938,1274.880981 171.789597,1275.616577 189.674652,1274.728882 
	C207.051865,1273.866455 224.506516,1271.743408 241.584564,1268.415649 
	C261.214111,1264.590576 280.643890,1259.426636 299.822510,1253.710449 
	C312.711151,1249.868896 325.148956,1244.375732 337.548309,1239.061157 
	C361.579254,1228.760986 384.385071,1216.080078 405.680847,1200.952271 
	C419.497223,1191.137695 432.870789,1180.601196 445.707794,1169.535645 
	C457.023285,1159.781616 467.891113,1149.364868 477.938080,1138.314819 
	C495.148773,1119.385742 510.063629,1098.670166 523.181030,1076.637329 
	C540.048889,1048.305054 553.826172,1018.555786 563.260010,987.021057 
	C569.179871,967.232727 573.928772,947.007019 577.738708,926.702759 
	C580.675415,911.052612 581.723206,895.003113 582.880310,879.078125 
	C583.817688,866.176331 584.454346,853.155762 583.803345,840.259705 
	C582.965515,823.661011 580.945435,807.106140 579.009949,790.582153 
	C575.760864,762.843262 568.424255,736.049683 558.996338,709.846680 
	C549.248291,682.753906 536.719421,656.967590 521.172302,632.685791 
	C507.086365,610.686096 491.084351,590.219421 473.525208,570.847412 
	C453.422394,548.669067 431.010864,529.305115 406.771454,511.832977 
	C386.172424,496.984833 364.117889,484.710144 341.144775,474.198212 
	C313.406860,461.506073 284.549927,451.953369 254.552139,445.864655 
	C234.655807,441.826233 214.719360,438.555511 194.398148,437.989777 
	C182.119385,437.647919 169.764679,436.323669 157.578430,437.235718 
	C139.065948,438.621307 120.636856,441.328491 102.233398,443.909637 
	C79.836952,447.050842 58.258953,453.571442 36.962242,460.977356 
	C26.422470,464.642548 16.075947,468.863434 5.264928,472.976349 
	C4.477804,469.764130 3.526264,466.785522 3.040430,463.732819 
	C1.424620,453.580109 7.060493,447.310699 15.162011,443.021088 
	C47.397835,425.952850 81.491539,414.216736 117.248146,406.846771 
	C148.051102,400.497803 179.174255,399.906769 210.252243,401.288727 
	C238.523117,402.545868 266.378632,407.981415 293.765625,415.380524 
	C330.845673,425.398438 366.388702,439.343384 400.136749,457.665070 
	C423.924652,470.579407 446.718323,485.143524 467.246033,502.875732 
	C482.280670,515.862976 497.371613,528.900818 511.268219,543.063416 
	C533.738159,565.963318 553.082031,591.468445 569.954102,618.810303 
	C585.950439,644.733093 599.104370,672.026367 609.783081,700.534912 
	C618.688904,724.310730 625.014526,748.809143 629.707153,773.709961 
	C631.714722,784.363220 633.279175,795.190735 633.860718,806.002808 
	C635.009949,827.367676 636.124878,848.791443 635.734741,870.163147 
	C635.453430,885.578918 633.363220,901.054199 630.906494,916.314026 
	C627.933960,934.777771 624.243835,953.165894 619.919556,971.362244 
	C614.358154,994.764587 606.267639,1017.394531 596.817566,1039.533325 
	C584.271729,1068.924561 569.219421,1096.945923 550.522888,1122.871826 
	C541.376526,1135.554932 531.600647,1147.821411 521.531128,1159.789673 
	C513.321167,1169.547729 504.926880,1179.345459 495.412872,1187.768433 
	C478.626465,1202.630005 461.448822,1217.166260 443.436554,1230.488647 
	C429.584625,1240.734131 414.200165,1248.907471 399.219391,1258.248901 
z"/>
<path fill="#2E3191" opacity="1.000000" stroke="none" 
	d="
M769.057861,912.021790 
	C770.027649,933.449341 764.532288,954.028442 760.509705,974.755493 
	C755.520752,1000.461426 747.984497,1025.516724 739.022217,1050.107178 
	C727.861877,1080.728027 714.232971,1110.254028 696.611389,1137.694214 
	C685.504761,1154.989502 673.913940,1172.118774 660.975891,1188.052124 
	C648.041870,1203.980713 633.792175,1218.986206 618.977112,1233.206421 
	C598.976807,1252.403931 577.177490,1269.630371 553.780823,1284.562500 
	C537.402588,1295.015381 520.474609,1304.644043 503.498688,1314.114868 
	C472.439667,1331.442505 439.676605,1345.066650 405.719086,1355.364746 
	C383.448090,1362.118530 360.623474,1367.322632 337.764709,1371.771240 
	C320.853271,1375.062622 303.531952,1376.706787 286.311432,1377.825439 
	C268.254578,1378.998535 250.040695,1379.757324 232.000580,1378.772217 
	C193.446075,1376.666748 155.714691,1369.564697 118.703087,1358.183105 
	C82.370453,1347.010254 48.408829,1330.640991 14.795222,1313.336548 
	C7.148033,1309.399780 2.706308,1301.569458 3.648852,1293.693848 
	C5.367126,1294.578003 6.898049,1295.355591 8.419874,1296.150391 
	C34.924717,1309.993652 61.879837,1322.813721 90.362389,1332.153076 
	C114.290634,1339.999023 138.519745,1346.716675 163.538361,1349.981323 
	C179.208832,1352.026245 194.945480,1353.728149 210.703781,1354.883423 
	C223.272614,1355.804810 235.944870,1356.324951 248.524460,1355.831421 
	C263.833740,1355.230835 279.106049,1353.506226 294.372772,1352.042480 
	C319.146973,1349.667236 343.370087,1344.346558 367.407501,1338.060669 
	C391.647064,1331.721924 415.327240,1323.753906 438.355194,1313.881836 
	C468.316498,1301.037476 497.132751,1286.009766 523.647583,1266.983398 
	C537.552673,1257.005615 550.957336,1246.272095 564.057129,1235.249023 
	C574.449524,1226.504028 584.428894,1217.182739 593.891846,1207.437744 
	C611.044678,1189.773804 626.565613,1170.697144 640.899963,1150.653198 
	C657.642822,1127.241211 672.380676,1102.629883 684.646057,1076.617310 
	C701.548889,1040.769531 714.712158,1003.588379 721.966003,964.528015 
	C725.384216,946.121460 729.180908,927.660828 730.679077,909.053467 
	C732.581238,885.428711 733.564087,861.585327 732.712646,837.916443 
	C731.349792,800.027161 725.668579,762.553345 715.794434,725.880554 
	C708.771729,699.798584 699.911316,674.312866 688.918396,649.580750 
	C676.625793,621.924438 662.497070,595.252808 645.035339,570.556152 
	C633.257935,553.898987 620.636902,537.763428 607.417908,522.224243 
	C596.881104,509.838074 585.414978,498.109039 573.399353,487.142365 
	C548.752258,464.646912 521.930969,444.974976 493.140289,427.984070 
	C462.047913,409.634888 429.365051,394.868622 395.106506,383.595001 
	C371.346008,375.776062 347.153168,369.557648 322.366882,365.994904 
	C308.528229,364.005737 294.635437,362.166473 280.702423,361.120087 
	C264.685242,359.917175 248.580612,358.887238 232.543594,359.218109 
	C216.409058,359.550995 200.306747,361.600098 184.197815,362.984161 
	C161.693420,364.917694 139.627075,369.448029 117.822731,375.093170 
	C90.867699,382.071869 64.478477,390.871887 38.944790,402.054260 
	C27.474014,407.077820 16.167027,412.475372 4.785805,417.703217 
	C1.864174,411.123871 3.129301,405.311981 9.562267,401.886230 
	C30.664114,390.648987 51.769791,379.373199 73.306496,369.011139 
	C95.036179,358.556244 118.163635,351.797119 141.703903,346.753540 
	C156.142975,343.659943 170.733124,341.110718 185.365479,339.129883 
	C197.611099,337.472137 210.000244,336.621643 222.354996,336.085388 
	C238.617264,335.379547 254.939590,334.553436 271.178009,335.211700 
	C288.608734,335.918335 306.084320,337.535980 323.336517,340.117889 
	C344.916931,343.347534 366.472900,347.185883 387.705811,352.179993 
	C414.646301,358.516541 440.660889,367.918365 466.100586,378.949646 
	C498.017883,392.789703 528.229736,409.631165 556.427124,429.916748 
	C570.987793,440.391876 584.927856,451.782684 598.656738,463.343445 
	C608.919189,471.985168 618.863098,481.114410 628.121582,490.815979 
	C646.248413,509.810242 663.079407,529.903137 678.291443,551.394653 
	C696.084534,576.532776 711.763916,602.878052 724.789856,630.715698 
	C741.785461,667.036682 754.815308,704.757141 763.246582,744.065186 
	C766.511047,759.284485 769.984497,774.352356 768.734375,790.761597 
	C767.303101,802.641846 765.290771,813.799011 765.178528,824.975220 
	C764.936279,849.081909 765.514282,873.202515 766.133484,897.307678 
	C766.260010,902.234192 768.040039,907.118164 769.057861,912.021790 
z"/>
<path fill="#2F318F" opacity="1.000000" stroke="none" 
	d="
M252.929596,264.881927 
	C261.159241,263.588135 269.349365,261.884338 277.626831,261.086731 
	C294.381531,259.472229 311.164612,257.924927 327.972809,257.173248 
	C339.050964,256.677795 350.193115,257.630066 361.307220,257.909821 
	C364.304871,257.985291 367.325073,257.756042 370.300201,258.035828 
	C387.032745,259.609283 403.900269,260.416290 420.445068,263.155792 
	C443.428467,266.961365 466.476501,271.107605 488.924469,277.212708 
	C511.888824,283.458252 534.489319,291.409760 556.666382,300.101440 
	C596.312195,315.639435 633.262573,336.484375 667.948242,361.131927 
	C683.108765,371.904938 697.688293,383.576111 711.881958,395.605988 
	C725.273499,406.955994 738.582397,418.593384 750.536560,431.402618 
	C766.518005,448.527191 781.500793,466.624939 796.289001,484.811798 
	C815.895508,508.924500 832.055237,535.353821 846.934021,562.611511 
	C865.813293,597.197998 880.848267,633.399719 892.384583,671.005493 
	C900.965576,698.977356 908.271118,727.328064 912.001221,756.436462 
	C914.218811,773.741150 916.731750,791.054199 917.829834,808.444458 
	C919.230164,830.622986 919.998352,852.889954 919.773926,875.106018 
	C919.616028,890.733765 918.044434,906.438110 915.863281,921.933594 
	C912.453003,946.161499 908.893433,970.434814 903.765442,994.338806 
	C896.121704,1029.969971 884.278503,1064.344849 869.715576,1097.810303 
	C853.520935,1135.025757 834.139099,1170.471680 810.555786,1203.429688 
	C797.528198,1221.635986 782.786621,1238.635864 768.470764,1255.891724 
	C761.390747,1264.425903 753.956787,1272.761475 745.933411,1280.399658 
	C723.435425,1301.817505 700.188599,1322.338013 674.671753,1340.251465 
	C648.269958,1358.786255 620.854797,1375.534790 591.820679,1389.520386 
	C557.774963,1405.920288 522.617554,1419.547241 485.987030,1429.031494 
	C465.486908,1434.339478 444.897247,1439.392700 424.166901,1443.686646 
	C411.472687,1446.316040 398.422180,1447.195679 385.555298,1449.026978 
	C356.153320,1453.211670 326.566315,1452.162842 297.045471,1451.804199 
	C284.416595,1451.650757 271.725952,1449.900757 259.219238,1447.901367 
	C239.447632,1444.740356 219.673569,1441.355469 200.143295,1436.981445 
	C172.295853,1430.744629 145.507278,1421.074219 119.321655,1409.725586 
	C85.758171,1395.179443 53.809246,1377.720825 23.495605,1357.243774 
	C16.313692,1352.392334 10.261924,1346.603882 6.564232,1338.307983 
	C14.318509,1342.189087 22.073059,1346.069702 29.826954,1349.951416 
	C49.755928,1359.927856 69.449089,1370.417603 89.690842,1379.712891 
	C104.778648,1386.641357 120.395386,1392.546631 136.097702,1397.979370 
	C162.069916,1406.965332 188.668732,1413.823120 215.869644,1417.924805 
	C232.295639,1420.401855 248.804581,1422.770508 265.362976,1423.819702 
	C287.707031,1425.235596 310.139771,1425.964722 332.524261,1425.776367 
	C347.150635,1425.653442 361.753571,1423.317383 376.376556,1422.086304 
	C401.849335,1419.941528 426.911163,1415.127563 451.553925,1408.721436 
	C473.494324,1403.017822 495.333435,1396.456665 516.510254,1388.412598 
	C538.677185,1379.992432 560.333313,1370.025757 581.611511,1359.517456 
	C609.141052,1345.922119 635.119812,1329.552124 659.512268,1310.860229 
	C672.726685,1300.733887 685.504761,1290.016724 698.172791,1279.206543 
	C706.991882,1271.680664 715.729004,1263.964478 723.735352,1255.598877 
	C745.559875,1232.795044 766.086609,1208.909058 784.146057,1182.903564 
	C802.377808,1156.649902 818.303589,1129.097656 831.807251,1100.212646 
	C848.443481,1064.627075 861.337341,1027.613281 869.837341,989.241272 
	C874.344482,968.894714 877.779053,948.279968 880.882080,927.663513 
	C882.988770,913.667542 884.287903,899.482971 884.860229,885.338684 
	C885.733826,863.748169 886.200806,842.109741 885.803101,820.510742 
	C885.558105,807.208496 883.380005,793.942139 882.076660,780.658997 
	C879.436768,753.752014 874.531433,727.201843 866.820129,701.352295 
	C859.725403,677.569519 851.634949,654.024902 842.705383,630.868103 
	C836.363892,614.422974 828.288208,598.598938 820.292480,582.850098 
	C807.358154,557.373779 791.957825,533.355347 774.861450,510.483643 
	C765.787231,498.344238 756.264893,486.503326 746.366394,475.026520 
	C735.657593,462.610077 724.819275,450.214447 713.072388,438.803223 
	C689.124084,415.539368 663.609192,394.092773 636.148315,374.965149 
	C608.437866,355.663666 579.395813,338.681274 548.800659,324.521088 
	C514.224792,308.518433 478.583832,295.229065 441.028381,288.012207 
	C422.166077,284.387543 403.133301,281.480072 384.068634,279.133911 
	C369.660980,277.360870 355.094208,276.572296 340.573669,276.097443 
	C318.806915,275.385651 297.018066,275.363037 275.240173,274.962616 
	C272.467468,274.911621 269.704132,274.351379 266.195007,273.885498 
	C263.691650,272.853210 261.769897,272.178894 260.204071,271.022583 
	C257.656799,269.141510 255.342331,266.945190 252.929596,264.881927 
z"/>
<path fill="#2F318F" opacity="1.000000" stroke="none" 
	d="
M503.029633,189.889404 
	C521.678955,192.925751 540.432190,195.439636 558.953064,199.122025 
	C586.086243,204.516724 612.711609,212.048538 638.559387,221.929504 
	C657.013428,228.984039 675.219299,236.740082 693.281799,244.755600 
	C726.562683,259.524536 757.792114,278.027435 787.507751,298.964355 
	C804.456665,310.906097 821.261658,323.229370 836.922485,336.778229 
	C857.604797,354.671509 877.736023,373.311462 896.903931,392.810272 
	C911.688293,407.849792 925.053772,424.362732 938.253052,440.858337 
	C949.971802,455.503754 961.241150,470.601898 971.528381,486.274994 
	C983.182129,504.030060 993.897949,522.435059 1004.353516,540.935059 
	C1026.024048,579.278564 1042.635986,619.874512 1055.758423,661.839661 
	C1063.997192,688.186951 1070.936157,714.945557 1074.980469,742.323181 
	C1077.575928,759.892090 1079.866577,777.511108 1081.954834,795.147766 
	C1083.021729,804.157227 1083.677368,813.245667 1083.932007,822.314880 
	C1084.487183,842.087463 1085.280884,861.885254 1084.811157,881.645020 
	C1084.415527,898.283142 1083.040894,914.968811 1080.898438,931.477539 
	C1077.832764,955.097473 1074.327148,978.703186 1069.765259,1002.072021 
	C1066.340576,1019.614563 1061.718018,1037.018433 1056.261230,1054.045776 
	C1048.832886,1077.225342 1041.145020,1100.430542 1031.642334,1122.806885 
	C1021.723389,1146.163574 1010.060547,1168.837891 998.133667,1191.264648 
	C989.326782,1207.824707 979.682129,1224.073486 968.954468,1239.444702 
	C954.452759,1260.223755 938.958679,1280.351929 923.108765,1300.132935 
	C913.288757,1312.388550 902.290222,1323.746094 891.325439,1335.025391 
	C879.905396,1346.773193 868.518677,1358.692627 855.989990,1369.191528 
	C836.425781,1385.586182 816.341736,1401.438721 795.699097,1416.450073 
	C764.107849,1439.423218 729.881836,1458.119507 694.546509,1474.629761 
	C664.079834,1488.864990 632.741333,1501.051880 599.982178,1509.007812 
	C578.931091,1514.120361 557.750244,1518.809814 536.457642,1522.776489 
	C522.571838,1525.363281 508.350952,1526.097168 494.334259,1528.049438 
	C475.186981,1530.716431 456.068420,1533.338623 436.657806,1533.049072 
	C421.935944,1532.829468 407.173279,1533.632690 392.492279,1532.825317 
	C374.727325,1531.848145 356.921356,1530.389893 339.328064,1527.810181 
	C313.982483,1524.094116 288.605316,1520.103882 263.629730,1514.500732 
	C241.537735,1509.544556 219.661301,1503.128906 198.270844,1495.687134 
	C177.613495,1488.500122 157.544586,1479.529175 137.494904,1470.710571 
	C109.188583,1458.260254 82.677238,1442.399902 56.504440,1426.058350 
	C43.148186,1417.719116 31.167303,1407.503906 21.490726,1394.871826 
	C21.308580,1394.634155 21.290302,1394.270752 20.853100,1392.864380 
	C26.301876,1396.287109 31.051109,1399.213257 35.743599,1402.227783 
	C64.194221,1420.504517 92.286377,1439.374268 123.127762,1453.601196 
	C159.073410,1470.182495 195.616669,1485.171143 234.043274,1495.057617 
	C252.807999,1499.885376 271.604675,1504.687744 290.575470,1508.583374 
	C304.724121,1511.488647 319.128937,1513.353149 333.503937,1514.895874 
	C350.400360,1516.709229 367.368073,1518.098145 384.341278,1518.890625 
	C402.429535,1519.735229 420.572540,1520.203857 438.667938,1519.792358 
	C449.135803,1519.554321 459.570068,1517.349365 469.995300,1515.860107 
	C480.566498,1514.349854 491.107269,1512.626953 501.662415,1511.004272 
	C529.614990,1506.706787 557.354309,1501.368774 584.596497,1493.690063 
	C619.262024,1483.919189 652.421997,1470.291748 685.041443,1455.101562 
	C719.852722,1438.890747 752.904968,1419.674316 784.267639,1397.681763 
	C801.243652,1385.777832 817.209839,1372.383545 833.197754,1359.137817 
	C844.280090,1349.956177 855.184387,1340.424316 865.172546,1330.086792 
	C883.316101,1311.308838 900.825867,1291.960083 916.683838,1271.094238 
	C936.380615,1245.177368 954.137939,1218.085938 969.753357,1189.565063 
	C988.411011,1155.487305 1004.811768,1120.334473 1016.853149,1083.384644 
	C1026.526367,1053.701660 1035.546021,1023.756042 1043.410156,993.550659 
	C1048.610840,973.575745 1051.581177,952.988708 1054.920654,932.572754 
	C1056.911255,920.403137 1058.158813,908.062683 1058.892944,895.748474 
	C1059.988037,877.382629 1061.069702,858.960632 1060.780273,840.584229 
	C1060.523438,824.284180 1059.019287,807.932373 1056.928223,791.750427 
	C1054.213257,770.739929 1051.071411,749.731079 1046.803101,728.991150 
	C1043.132446,711.155884 1038.118042,693.548828 1032.823608,676.106262 
	C1021.781616,639.729492 1007.059143,604.787842 989.483704,571.101807 
	C973.453064,540.376404 955.691650,510.656128 934.561523,483.115967 
	C921.722595,466.382233 908.719421,449.736603 895.004822,433.723907 
	C882.502808,419.126862 869.564880,404.787872 855.712585,391.487549 
	C830.216309,367.007141 803.342468,344.096680 774.428223,323.599060 
	C751.661560,307.459534 728.133789,292.661377 703.677307,279.246613 
	C665.205811,258.144440 624.802551,241.677628 583.011414,228.545303 
	C550.529602,218.338318 517.369019,210.785446 484.000275,204.137543 
	C476.607666,202.664734 469.148651,201.525116 461.449158,199.679352 
	C461.853394,198.741470 462.490936,198.122574 463.209747,198.006287 
	C473.775604,196.296982 484.373840,194.776520 494.911926,192.914413 
	C497.708679,192.420227 500.328552,190.925003 503.029633,189.889404 
z"/>
<path fill="#2F318F" opacity="1.000000" stroke="none" 
	d="
M275.949677,132.901093 
	C283.692993,130.293488 291.323395,127.262268 299.202026,125.162285 
	C318.405182,120.043831 337.636261,114.968391 357.023010,110.619911 
	C372.395782,107.171783 387.970398,104.538437 403.539642,102.075897 
	C418.479340,99.712936 433.506256,97.850929 448.535736,96.124664 
	C457.717102,95.070107 466.965424,94.352669 476.201538,94.072754 
	C494.972565,93.503853 513.772400,92.694412 532.528992,93.184952 
	C550.333496,93.650589 568.107117,95.536423 585.877930,96.997795 
	C620.388123,99.835762 654.257935,106.478065 687.711365,115.147758 
	C717.851746,122.958824 747.441101,132.664429 775.984375,145.131760 
	C798.374329,154.911346 820.714233,164.969513 842.323120,176.335953 
	C877.067932,194.611938 910.304565,215.496445 941.641052,239.217560 
	C959.108765,252.440308 976.732483,265.573334 993.149902,280.036316 
	C1011.712402,296.389038 1029.486328,313.718445 1046.687988,331.508209 
	C1059.986816,345.261810 1072.625366,359.808258 1084.210693,375.027374 
	C1100.757080,396.763428 1117.004883,418.843628 1131.650146,441.876862 
	C1146.053345,464.529449 1159.432007,488.002625 1171.175659,512.130371 
	C1183.412109,537.270325 1194.257812,563.228760 1203.684082,589.555298 
	C1213.201904,616.137512 1220.937988,643.425110 1228.114014,670.755676 
	C1233.232788,690.250977 1236.511108,710.263977 1239.910278,730.165649 
	C1242.787842,747.013428 1245.064575,763.990540 1246.845459,780.990295 
	C1248.188599,793.811157 1248.560303,806.751160 1248.946289,819.650635 
	C1249.497803,838.088928 1250.325684,856.556458 1249.824707,874.978638 
	C1249.263428,895.614685 1247.875366,916.264893 1245.880493,936.815063 
	C1243.863037,957.596924 1241.575928,978.434509 1237.746216,998.937561 
	C1233.106812,1023.775757 1227.239502,1048.420044 1220.971313,1072.909668 
	C1212.757324,1105.000854 1202.059814,1136.383423 1188.753052,1166.692627 
	C1177.487183,1192.353394 1165.458008,1217.788208 1151.958496,1242.328247 
	C1138.557861,1266.688599 1123.514282,1290.218628 1108.023315,1313.330078 
	C1097.043701,1329.710815 1084.773804,1345.350342 1071.907715,1360.312622 
	C1054.417114,1380.652710 1036.699951,1400.954590 1017.430237,1419.564575 
	C997.744568,1438.576294 976.312134,1455.821899 955.193909,1473.296143 
	C929.742249,1494.356079 901.947510,1512.146240 873.420532,1528.660767 
	C846.273926,1544.376221 818.410828,1558.853271 789.155457,1570.341553 
	C768.014648,1578.643188 746.806030,1586.835449 725.323975,1594.189331 
	C697.149048,1603.834351 668.244812,1610.936157 638.881836,1615.968750 
	C621.716125,1618.910889 604.498291,1621.623901 587.228394,1623.855225 
	C577.086243,1625.165649 566.803467,1625.489380 556.570496,1625.972290 
	C539.685852,1626.769409 522.772156,1628.164673 505.903900,1627.793945 
	C483.936737,1627.310913 461.982269,1625.609131 440.059875,1623.938965 
	C423.637115,1622.687866 407.198639,1621.178467 390.905029,1618.828369 
	C374.828033,1616.509521 358.726776,1613.774170 342.990723,1609.813110 
	C319.255157,1603.838257 295.501251,1597.595703 272.359467,1589.696533 
	C248.392029,1581.515625 225.155258,1571.198364 201.579712,1561.864014 
	C184.776108,1555.210571 169.203690,1546.330078 154.595352,1535.766724 
	C150.137939,1532.543701 146.126114,1528.704590 142.517410,1524.101929 
	C143.744324,1524.608643 145.007736,1525.042236 146.192734,1525.633057 
	C165.451828,1535.234009 184.331329,1545.709229 204.051315,1554.242798 
	C225.934814,1563.712646 248.338470,1572.153320 270.974762,1579.657104 
	C289.816559,1585.903076 309.206055,1590.648926 328.567596,1595.132324 
	C348.231293,1599.685669 368.131470,1603.244507 387.979004,1606.967285 
	C399.922424,1609.207275 411.923431,1611.235596 423.971741,1612.792969 
	C435.244781,1614.250122 446.597443,1615.530029 457.945343,1615.867188 
	C475.095734,1616.376831 492.283752,1616.391357 509.434906,1615.894775 
	C528.284851,1615.349121 547.172852,1614.632690 565.934448,1612.840576 
	C601.633179,1609.430420 637.039368,1603.925415 671.835144,1595.002686 
	C701.215942,1587.468628 730.001892,1578.068604 757.809692,1565.961548 
	C781.407593,1555.687256 805.129700,1545.535034 827.970581,1533.730225 
	C851.673706,1521.479858 874.769226,1507.925537 897.409241,1493.786499 
	C916.376160,1481.941406 934.637451,1468.879883 952.581360,1455.511597 
	C965.796021,1445.666504 978.266663,1434.762329 990.571228,1423.772827 
	C1003.442566,1412.277222 1016.406616,1400.750610 1028.093506,1388.095581 
	C1045.455811,1369.294800 1062.173584,1349.849976 1078.315796,1329.988525 
	C1089.513550,1316.210815 1099.894043,1301.666626 1109.527832,1286.746948 
	C1120.692139,1269.457031 1131.545166,1251.843750 1140.893555,1233.533813 
	C1153.786499,1208.281250 1166.406860,1182.743774 1176.812500,1156.407227 
	C1187.673340,1128.918579 1196.428101,1100.533325 1204.854858,1072.168945 
	C1211.160522,1050.943970 1216.000732,1029.238037 1220.527344,1007.544678 
	C1224.114746,990.352600 1226.437622,972.883728 1228.944458,955.483337 
	C1230.915161,941.804871 1232.379272,928.051208 1233.922729,914.314575 
	C1234.494385,909.227966 1234.862061,904.098755 1234.960083,898.982056 
	C1235.380249,877.039062 1236.264526,855.080994 1235.807007,833.152954 
	C1235.452759,816.183777 1233.710449,799.213989 1231.941284,782.311890 
	C1230.006592,763.828003 1227.853516,745.335388 1224.823120,727.007385 
	C1222.120117,710.659180 1218.383911,694.461304 1214.587646,678.318481 
	C1205.490479,639.633301 1193.445068,601.788757 1177.413574,565.483521 
	C1164.960815,537.282532 1150.699463,509.817657 1136.037720,482.676117 
	C1126.193237,464.451935 1114.958618,446.863129 1103.049194,429.900452 
	C1089.526855,410.640442 1075.209839,391.846344 1060.037476,373.862671 
	C1044.661499,355.637512 1028.541626,337.903809 1011.424988,321.319946 
	C992.682800,303.161194 972.945190,285.925964 952.674011,269.480743 
	C935.052551,255.185196 916.603638,241.748169 897.566284,229.402954 
	C876.982483,216.054871 855.560547,203.922577 834.022888,192.139709 
	C800.694031,173.906143 765.760315,159.240356 729.842529,146.798843 
	C698.714050,136.016281 667.152405,126.974571 634.753723,121.034973 
	C616.659424,117.717766 598.512695,114.549927 580.276672,112.186394 
	C566.540894,110.406143 552.640381,109.553391 538.786743,109.103912 
	C516.521484,108.381531 494.223267,107.760117 471.960358,108.194115 
	C456.158173,108.502167 440.371429,110.419327 424.614532,111.987595 
	C410.367554,113.405579 396.098663,114.877098 381.970734,117.143433 
	C366.738892,119.586845 351.597198,122.699066 336.529694,126.032822 
	C318.257355,130.075653 300.103943,134.655884 281.190460,138.877869 
	C278.971130,136.801804 277.460388,134.851456 275.949677,132.901093 
z"/>
<path fill="#2F308D" opacity="1.000000" stroke="none" 
	d="
M502.775757,189.583038 
	C500.328552,190.925003 497.708679,192.420227 494.911926,192.914413 
	C484.373840,194.776520 473.775604,196.296982 463.209747,198.006287 
	C462.490936,198.122574 461.853394,198.741470 461.094269,199.484207 
	C447.676849,198.934265 434.354401,197.579468 421.006439,197.245392 
	C407.740112,196.913361 394.448120,197.605896 381.167450,197.853317 
	C379.170380,197.890503 377.165985,197.854736 375.178070,198.015152 
	C359.392090,199.288971 343.524872,199.969315 327.846527,202.060684 
	C307.499573,204.774780 287.173309,207.994415 267.082581,212.172119 
	C249.891998,215.746765 232.926208,220.573471 216.071075,225.556931 
	C173.190628,238.235153 132.489059,256.272888 93.010223,277.086884 
	C78.427322,284.775269 64.404129,293.519653 49.920815,301.406219 
	C45.866253,303.614014 41.329823,306.518463 35.623425,302.947723 
	C41.723793,298.255341 47.400963,293.621735 53.345608,289.361389 
	C80.953255,269.575775 110.552528,253.192352 141.324753,238.969650 
	C179.703674,221.231216 219.688568,207.890091 260.820435,198.345871 
	C281.755249,193.488159 303.121002,190.388306 324.382629,187.076157 
	C336.899139,185.126358 349.565186,183.782227 362.214050,183.116165 
	C383.249542,182.008469 404.332336,180.998367 425.381622,181.222794 
	C440.678284,181.385864 455.974335,183.401062 471.230133,184.981491 
	C481.696686,186.065765 492.093750,187.821228 502.775757,189.583038 
z"/>
<path fill="#39377B" opacity="1.000000" stroke="none" 
	d="
M252.492188,264.919739 
	C255.342331,266.945190 257.656799,269.141510 260.204071,271.022583 
	C261.769897,272.178894 263.691650,272.853210 265.775482,273.904175 
	C264.051361,275.037231 262.087372,276.595428 259.947052,276.895294 
	C226.523254,281.578552 193.571274,288.465637 161.044189,297.461823 
	C124.948997,307.444855 90.585869,321.656006 57.291988,338.742676 
	C45.351234,344.870789 32.628376,349.474915 20.262463,354.774597 
	C19.964886,354.242950 19.667309,353.711334 19.369732,353.179688 
	C22.504475,350.812378 25.455980,348.140167 28.804155,346.128021 
	C48.309464,334.405518 67.347382,321.732941 87.598152,311.461182 
	C123.434677,293.283783 161.275650,280.216888 200.915939,272.972504 
	C217.883759,269.871552 235.003845,267.603851 252.492188,264.919739 
z"/>
<path fill="#2F308D" opacity="1.000000" stroke="none" 
	d="
M275.542725,132.938538 
	C277.460388,134.851456 278.971130,136.801804 280.787476,138.902466 
	C263.198120,146.040344 245.212112,152.805161 227.432175,160.074051 
	C207.010422,168.423004 186.737000,177.139038 166.470856,185.862213 
	C159.196213,188.993439 152.136444,192.622696 144.961731,195.988678 
	C143.979065,196.449707 142.898209,196.701401 141.334824,196.100357 
	C148.486786,191.424408 155.515884,186.546524 162.811890,182.107330 
	C195.191223,162.406250 229.465759,146.814606 265.562958,135.257095 
	C268.677979,134.259720 271.941315,133.725403 275.542725,132.938538 
z"/>
<path fill="#2A2A66" opacity="1.000000" stroke="none" 
	d="
M769.456299,911.946350 
	C768.040039,907.118164 766.260010,902.234192 766.133484,897.307678 
	C765.514282,873.202515 764.936279,849.081909 765.178528,824.975220 
	C765.290771,813.799011 767.303101,802.641846 768.756042,791.228516 
	C770.036987,795.313171 771.684082,799.615173 771.881165,803.982666 
	C772.805847,824.473083 773.895752,844.983826 773.812073,865.482666 
	C773.750977,880.455200 771.967224,895.421265 770.895081,910.386230 
	C770.858093,910.903259 770.215210,911.377014 769.456299,911.946350 
z"/>
<path fill="#2F308D" opacity="1.000000" stroke="none" 
	d="
M81.216743,239.250793 
	C78.518845,240.854309 76.093567,242.214859 73.528313,243.653931 
	C80.495682,228.490097 115.138794,205.199310 133.883942,205.407181 
	C116.082253,216.823395 98.785812,227.915588 81.216743,239.250793 
z"/>
<path fill="#2F308D" opacity="1.000000" stroke="none" 
	d="
M48.349499,211.467209 
	C43.551739,216.493042 38.865871,221.632111 33.925777,226.513901 
	C28.635351,231.741867 23.151545,236.777878 17.662279,241.799438 
	C14.555882,244.641159 11.268966,247.285553 8.063363,250.018814 
	C7.719726,249.751465 7.376089,249.484116 7.032453,249.216766 
	C10.368733,244.101959 13.455841,238.801880 17.092674,233.910553 
	C24.893690,223.418594 34.634800,215.318985 47.665398,211.087616 
	C48.146687,211.190964 48.349499,211.467209 48.349499,211.467209 
z"/>
<path fill="#2F318F" opacity="1.000000" stroke="none" 
	d="
M19.423063,1437.866455 
	C19.696592,1437.163086 20.507301,1436.355713 20.580647,1436.417847 
	C27.931168,1442.650635 35.225742,1448.949097 42.722363,1455.414673 
	C31.999113,1458.577393 22.659079,1448.337280 19.423063,1437.866455 
z"/>
<path fill="#2F308D" opacity="1.000000" stroke="none" 
	d="
M48.041065,211.056030 
	C48.411003,210.719070 48.886562,210.517059 49.362122,210.315048 
	C49.187019,210.631821 49.011921,210.948593 48.593163,211.366287 
	C48.349499,211.467209 48.146687,211.190964 48.041065,211.056030 
z"/>
<path fill="#2F308D" opacity="1.000000" stroke="none" 
	d="
M57.326729,204.249176 
	C57.098503,204.707611 56.732948,205.064255 56.367393,205.420898 
	C56.393147,205.015915 56.418900,204.610931 56.682621,204.071045 
	C56.920586,203.936127 57.189396,204.147385 57.326729,204.249176 
z"/>
<path fill="#000000" opacity="1.000000" stroke="none" 
	d="
M1027.500732,1602.915649 
	C1033.443726,1598.870239 1039.985229,1595.099731 1046.230347,1590.889893 
	C1070.532837,1574.507202 1095.333984,1558.779785 1118.807861,1541.277222 
	C1139.677368,1525.716064 1159.472778,1508.618774 1178.927124,1491.284668 
	C1194.934814,1477.021606 1210.329956,1461.960815 1224.956909,1446.283447 
	C1248.599121,1420.943237 1270.445923,1394.074829 1290.278442,1365.570312 
	C1306.959595,1341.595093 1322.654053,1317.049561 1336.842163,1291.517700 
	C1352.900635,1262.619873 1366.904785,1232.778076 1379.475708,1202.205444 
	C1395.024658,1164.390137 1408.049072,1125.769165 1418.065308,1086.136475 
	C1422.410156,1068.944214 1426.565063,1051.703979 1430.769287,1034.476440 
	C1431.081177,1033.198120 1431.092285,1031.846313 1431.543701,1030.287354 
	C1431.896118,1031.542358 1431.993286,1033.038574 1431.993408,1034.534790 
	C1432.000244,1222.366089 1432.000000,1410.197510 1432.000000,1598.028809 
	C1432.000000,1599.503662 1432.000000,1600.978516 1432.000000,1602.988770 
	C1297.158325,1602.988770 1162.560669,1602.988770 1027.500732,1602.915649 
z"/>
<path fill="#2E3191" opacity="1.000000" stroke="none" 
	d="
M2.467192,676.318481 
	C2.111759,674.298706 2.065657,672.559875 2.088697,670.391602 
	C2.547348,667.411255 2.645294,664.772339 3.383032,662.326355 
	C5.311813,655.931458 10.535799,652.189087 17.415867,652.007263 
	C40.267960,651.403442 61.844551,656.722351 82.655487,665.856934 
	C102.503258,674.568787 119.992653,686.595459 135.967102,701.260132 
	C152.194199,716.156616 165.346893,733.288452 176.556213,752.084290 
	C189.102814,773.122498 197.552704,795.847107 201.573639,819.849609 
	C204.127365,835.093750 205.329590,850.851379 204.707855,866.280823 
	C203.402176,898.683105 194.080673,929.110840 178.221664,957.508606 
	C166.809906,977.943115 152.262939,995.905518 134.915848,1011.423950 
	C107.328148,1036.103516 75.136429,1052.115967 38.920841,1059.838623 
	C32.021500,1061.309814 24.974216,1062.278198 17.944012,1062.898926 
	C8.006315,1063.776611 3.002238,1058.756592 3.001982,1048.571411 
	C2.998919,926.573608 3.001069,804.575867 2.990705,682.578064 
	C2.990536,680.585205 2.851016,678.592285 2.467192,676.318481 
z"/>
</svg>